<svg width="2299" height="519" viewBox="0 0 2299 519" fill="none" xmlns="http://www.w3.org/2000/svg">
<g id="butterflies">
<g id="hypo">
<g id="hypobutterfly">
<path id="body" d="M411.757 4.62674H411.623C393.485 -5.41872 365.776 2.81856 345.027 11.1228L344.96 11.1891C344.759 11.2561 344.559 11.323 344.358 11.39C343.354 12.3946 243.006 44.5534 218.756 157.395C217.488 149.396 215.904 144.588 214.179 144.588C212.453 144.588 210.869 149.396 209.601 157.396C185.35 44.5541 85.0035 12.3959 83.9982 11.3913C83.7974 11.3244 83.5973 11.2574 83.3958 11.1904L83.3289 11.1241C62.5805 2.81923 34.8713 -5.41738 16.7994 4.62808H16.6C15.3945 5.49868 8.56763 8.84717 4.01703 16.7496C-1.06968 25.4557 -1.00275 35.9699 2.4107 45.5466C15.2607 76.0847 43.4391 81.6432 63.0503 138.434C75.6902 174.698 79.3807 183.815 124.492 183.102C47.5218 225.695 60.3049 337.467 116.126 355.884C172.923 372.204 181.935 280.749 206.147 215.047C206.353 214.43 206.537 213.888 206.735 213.302C207.183 243.669 210.341 267.216 214.179 267.216C218.017 267.216 221.175 243.668 221.623 213.302C221.821 213.888 222.005 214.429 222.211 215.046C226.16 225.761 231.648 241.03 237.27 259.313C241.956 275.051 245.034 290.454 250.924 306.192C263.775 338.873 279.369 365.326 312.232 355.883C368.052 337.467 380.836 225.694 303.866 183.102C316.649 183.303 329.834 183.838 341.079 178.146C344.559 176.271 347.972 173.793 350.784 170.645C358.95 161.336 361.292 149.951 365.374 138.432C384.984 81.6419 413.096 76.0834 425.946 45.5452C429.36 35.9686 429.427 25.4543 424.34 16.7483C419.789 8.8465 412.962 5.49801 411.757 4.62674Z" fill="#C2DBE1"/>
<path id="rightantenae" d="M218.234 125.627C218.467 126.964 218.591 127.678 218.591 127.678C218.591 127.678 218.584 126.953 218.571 125.593C218.562 124.236 218.491 122.255 218.697 119.741C219.038 106.673 223.481 89.6593 234.061 73.4714C239.88 64.6802 247.628 56.9272 257.086 50.5342C267.238 42.7658 276.921 33.9291 274.595 19.9599C273.178 12.6562 267.867 8.21209 261.759 7.64418C250.478 6.55392 241.089 16.1754 245.659 26.3689C247.164 29.9886 249.717 32.3017 251.941 33.763C256.766 36.4887 260.057 35.2719 259.954 35.4641C260.075 35.3201 256.61 35.8799 252.686 32.6942C250.802 31.1566 248.862 28.7195 248.031 25.5365C245.67 17.1398 253.02 10.9511 261.063 12.5069C265.198 13.2087 268.184 16.5471 268.877 20.9685C270.478 31.7908 261.605 39.0402 253.087 45.174C243.619 51.9044 234.999 60.8924 229.179 70.3472C223.274 79.8737 220.046 89.9198 218.383 98.5857C216.653 107.29 216.992 114.715 217.402 119.774C217.609 122.318 218.004 124.286 218.234 125.627Z" fill="#C2DBE1"/>
<path id="leftantenae" d="M171.266 50.5307C180.683 56.9899 188.358 64.7859 194.1 73.591C204.272 89.3939 208.824 106.28 209.09 119.724C209.278 122.22 209.195 124.186 209.178 125.531C209.157 126.879 209.146 127.598 209.146 127.598C209.146 127.598 209.275 126.892 209.515 125.566C209.753 124.237 210.16 122.286 210.385 119.76C211.994 101.513 207.385 84.2238 198.988 70.4743C193.246 61.0054 184.7 51.9739 175.275 45.1778C166.814 38.9972 158.02 31.7591 159.705 21.0125C161.323 11.3816 172.886 10.3824 177.932 16.1069C182.044 20.547 180.443 28.0979 175.346 32.2239C171.582 35.2516 168.342 34.6964 168.45 34.841C168.36 34.6488 171.426 35.861 176.087 33.2947C183.74 28.3604 185.311 19.3275 180.828 13.696C173.547 4.50243 156.811 5.8954 153.989 19.9932C151.604 33.7655 161.312 42.8084 171.266 50.5307Z" fill="#C2DBE1"/>
</g>
<path id="very hypo" d="M127.3 440.298C126.398 440.291 125.518 440.11 124.658 439.755C123.799 439.393 123.025 438.814 122.336 438.018C121.647 437.216 121.1 436.158 120.695 434.844C120.29 433.53 120.088 431.914 120.088 429.996C120.088 428.221 120.244 426.594 120.557 425.117C120.869 423.64 121.338 422.362 121.963 421.282C122.588 420.202 123.369 419.368 124.307 418.778C125.244 418.182 126.342 417.884 127.599 417.884C128.778 417.884 129.818 418.129 130.72 418.619C131.622 419.102 132.354 419.776 132.915 420.643C133.476 421.509 133.827 422.507 133.969 423.636H132.009C131.81 422.486 131.338 421.538 130.592 420.792C129.847 420.046 128.849 419.673 127.599 419.673C125.809 419.673 124.424 420.504 123.444 422.166C122.464 423.821 121.97 426.172 121.963 429.219H122.102C122.45 428.572 122.897 428.015 123.444 427.546C123.998 427.07 124.626 426.701 125.33 426.438C126.033 426.168 126.771 426.033 127.545 426.033C128.76 426.033 129.871 426.342 130.88 426.96C131.888 427.571 132.695 428.413 133.298 429.485C133.902 430.55 134.204 431.768 134.204 433.139C134.204 434.439 133.916 435.636 133.341 436.729C132.773 437.823 131.97 438.693 130.933 439.339C129.903 439.986 128.692 440.305 127.3 440.298ZM127.3 438.509C128.252 438.509 129.101 438.267 129.847 437.784C130.599 437.301 131.192 436.655 131.626 435.845C132.059 435.028 132.276 434.126 132.276 433.139C132.276 432.152 132.059 431.257 131.626 430.455C131.192 429.652 130.599 429.013 129.847 428.537C129.101 428.061 128.252 427.823 127.3 427.823C126.576 427.823 125.901 427.972 125.276 428.271C124.651 428.562 124.108 428.963 123.646 429.474C123.192 429.979 122.844 430.558 122.602 431.211C122.368 431.864 122.279 432.55 122.336 433.267C122.414 434.268 122.673 435.167 123.114 435.962C123.561 436.751 124.143 437.372 124.861 437.827C125.585 438.281 126.398 438.509 127.3 438.509ZM139.531 429.996V428.633L152.57 421.452V423.54L141.874 429.304L141.981 429.123V429.517L141.874 429.336L152.57 435.099V437.188L139.531 429.996ZM179.43 423.636L173.454 440H171.43L165.453 423.636H167.509L172.367 437.496H172.516L177.374 423.636H179.43ZM189.17 440.341C187.643 440.341 186.322 439.986 185.207 439.276C184.092 438.558 183.229 437.567 182.618 436.303C182.015 435.032 181.713 433.569 181.713 431.914C181.713 430.266 182.015 428.803 182.618 427.525C183.229 426.239 184.071 425.234 185.143 424.51C186.223 423.778 187.469 423.413 188.882 423.413C189.77 423.413 190.626 423.576 191.45 423.903C192.274 424.222 193.012 424.716 193.666 425.384C194.326 426.044 194.848 426.879 195.232 427.887C195.615 428.888 195.807 430.075 195.807 431.445V432.383H183.023V430.71H193.868C193.868 429.659 193.655 428.714 193.229 427.876C192.81 427.031 192.224 426.364 191.471 425.874C190.725 425.384 189.863 425.138 188.882 425.138C187.846 425.138 186.933 425.415 186.145 425.969C185.356 426.523 184.738 427.255 184.291 428.164C183.85 429.073 183.627 430.067 183.62 431.147V432.148C183.62 433.448 183.843 434.585 184.291 435.558C184.745 436.523 185.388 437.273 186.219 437.805C187.05 438.338 188.034 438.604 189.17 438.604C189.944 438.604 190.623 438.484 191.205 438.242C191.794 438.001 192.288 437.678 192.686 437.273C193.091 436.861 193.396 436.41 193.602 435.92L195.402 436.506C195.154 437.195 194.745 437.83 194.177 438.413C193.616 438.995 192.913 439.464 192.068 439.819C191.23 440.167 190.264 440.341 189.17 440.341ZM199.986 440V423.636H201.829V426.151H201.968C202.294 425.327 202.862 424.663 203.672 424.158C204.489 423.647 205.412 423.391 206.442 423.391C206.598 423.391 206.772 423.395 206.964 423.402C207.156 423.409 207.316 423.416 207.443 423.423V425.352C207.358 425.337 207.209 425.316 206.996 425.288C206.783 425.259 206.552 425.245 206.303 425.245C205.451 425.245 204.691 425.426 204.024 425.788C203.363 426.143 202.841 426.637 202.458 427.269C202.074 427.901 201.882 428.622 201.882 429.432V440H199.986ZM212.498 446.136C212.122 446.136 211.77 446.101 211.444 446.03C211.117 445.959 210.858 445.881 210.666 445.795L211.177 444.123C211.824 444.322 212.399 444.393 212.903 444.336C213.407 444.286 213.855 444.059 214.246 443.654C214.636 443.256 214.984 442.646 215.29 441.822L215.886 440.16L209.867 423.636H211.923L216.781 437.496H216.93L221.788 423.636H223.844L216.92 442.589C216.628 443.377 216.27 444.034 215.844 444.56C215.417 445.092 214.924 445.487 214.363 445.742C213.809 446.005 213.187 446.136 212.498 446.136ZM237.888 429.773V440H235.992V418.182H237.888V426.204H238.059C238.442 425.359 239.035 424.684 239.838 424.18C240.647 423.675 241.67 423.423 242.906 423.423C244.014 423.423 244.987 423.651 245.825 424.105C246.663 424.56 247.316 425.231 247.785 426.119C248.254 427.006 248.488 428.1 248.488 429.4V440H246.581V429.517C246.581 428.168 246.205 427.106 245.452 426.332C244.706 425.55 243.698 425.16 242.426 425.16C241.553 425.16 240.775 425.344 240.093 425.714C239.412 426.083 238.872 426.616 238.474 427.312C238.083 428.001 237.888 428.821 237.888 429.773ZM254.217 446.136C253.841 446.136 253.489 446.101 253.162 446.03C252.836 445.959 252.577 445.881 252.385 445.795L252.896 444.123C253.542 444.322 254.118 444.393 254.622 444.336C255.126 444.286 255.574 444.059 255.964 443.654C256.355 443.256 256.703 442.646 257.008 441.822L257.605 440.16L251.586 423.636H253.642L258.5 437.496H258.649L263.507 423.636H265.563L258.638 442.589C258.347 443.377 257.988 444.034 257.562 444.56C257.136 445.092 256.643 445.487 256.081 445.742C255.528 446.005 254.906 446.136 254.217 446.136ZM269.273 446.136V423.636H271.116V426.758H271.34C271.567 426.268 271.88 425.767 272.277 425.256C272.675 424.737 273.201 424.3 273.854 423.945C274.515 423.59 275.346 423.413 276.347 423.413C277.696 423.413 278.875 423.768 279.884 424.478C280.9 425.181 281.688 426.168 282.249 427.44C282.817 428.704 283.101 430.178 283.101 431.861C283.101 433.551 282.817 435.032 282.249 436.303C281.688 437.575 280.9 438.565 279.884 439.276C278.875 439.986 277.703 440.341 276.368 440.341C275.381 440.341 274.554 440.163 273.886 439.808C273.225 439.453 272.689 439.016 272.277 438.498C271.873 437.972 271.56 437.461 271.34 436.964H271.169V446.136H269.273ZM271.148 431.829C271.148 433.15 271.343 434.322 271.734 435.344C272.132 436.36 272.7 437.159 273.439 437.741C274.184 438.317 275.086 438.604 276.145 438.604C277.231 438.604 278.147 438.306 278.893 437.71C279.646 437.106 280.218 436.293 280.608 435.27C281.006 434.247 281.205 433.1 281.205 431.829C281.205 430.572 281.01 429.439 280.619 428.43C280.235 427.422 279.667 426.623 278.914 426.033C278.162 425.437 277.238 425.138 276.145 425.138C275.079 425.138 274.174 425.426 273.428 426.001C272.682 426.57 272.114 427.358 271.723 428.366C271.34 429.368 271.148 430.522 271.148 431.829ZM293.621 440.341C292.208 440.341 290.958 439.982 289.871 439.265C288.792 438.548 287.947 437.557 287.336 436.293C286.725 435.021 286.42 433.555 286.42 431.893C286.42 430.217 286.725 428.743 287.336 427.472C287.947 426.193 288.792 425.199 289.871 424.489C290.958 423.771 292.208 423.413 293.621 423.413C295.035 423.413 296.281 423.771 297.361 424.489C298.44 425.206 299.286 426.2 299.896 427.472C300.514 428.743 300.823 430.217 300.823 431.893C300.823 433.555 300.518 435.021 299.907 436.293C299.296 437.557 298.447 438.548 297.361 439.265C296.281 439.982 295.035 440.341 293.621 440.341ZM293.621 438.604C294.758 438.604 295.72 438.299 296.509 437.688C297.297 437.077 297.893 436.264 298.298 435.249C298.71 434.233 298.916 433.114 298.916 431.893C298.916 430.671 298.71 429.549 298.298 428.526C297.893 427.504 297.297 426.683 296.509 426.065C295.72 425.447 294.758 425.138 293.621 425.138C292.492 425.138 291.53 425.447 290.734 426.065C289.946 426.683 289.346 427.504 288.934 428.526C288.529 429.549 288.327 430.671 288.327 431.893C288.327 433.114 288.529 434.233 288.934 435.249C289.346 436.264 289.946 437.077 290.734 437.688C291.523 438.299 292.485 438.604 293.621 438.604Z" fill="black"/>
</g>
<g id="mid-hypo">
<g id="midhypobutterfly">
<path id="body_2" d="M878.757 4.62674H878.623C860.485 -5.41872 832.776 2.81855 812.027 11.1228L811.96 11.1891C811.759 11.2561 811.559 11.323 811.358 11.39C810.354 12.3946 710.006 44.5534 685.756 157.395C684.488 149.396 682.904 144.588 681.179 144.588C679.453 144.588 677.869 149.396 676.601 157.396C652.35 44.5541 552.004 12.3959 550.998 11.3913C550.797 11.3244 550.597 11.2574 550.396 11.1904L550.329 11.1241C529.58 2.81923 501.871 -5.41738 483.799 4.62808H483.6C482.395 5.49868 475.568 8.84717 471.017 16.7496C465.93 25.4557 465.997 35.9699 469.411 45.5466C482.261 76.0847 510.439 81.6432 530.05 138.434C542.69 174.698 546.381 183.815 591.492 183.102C514.522 225.695 527.305 337.467 583.126 355.884C639.923 372.204 648.935 280.749 673.147 215.047C673.353 214.43 673.537 213.888 673.735 213.302C674.183 243.669 677.341 267.216 681.179 267.216C685.017 267.216 688.175 243.668 688.623 213.302C688.821 213.888 689.005 214.429 689.211 215.046C693.16 225.761 698.648 241.03 704.27 259.313C708.956 275.051 712.034 290.454 717.924 306.192C730.775 338.873 746.369 365.326 779.232 355.883C835.052 337.467 847.836 225.694 770.866 183.102C783.649 183.303 796.834 183.838 808.079 178.146C811.559 176.271 814.972 173.793 817.784 170.645C825.95 161.336 828.292 149.951 832.374 138.432C851.984 81.6419 880.096 76.0834 892.946 45.5452C896.36 35.9686 896.427 25.4543 891.34 16.7483C886.789 8.8465 879.962 5.49801 878.757 4.62674Z" fill="url(#paint0_linear_164_553)"/>
<path id="rightantenae_2" d="M685.234 125.627C685.467 126.964 685.591 127.678 685.591 127.678C685.591 127.678 685.584 126.953 685.571 125.593C685.562 124.236 685.491 122.255 685.697 119.741C686.038 106.673 690.481 89.6593 701.061 73.4714C706.88 64.6802 714.628 56.9272 724.086 50.5342C734.238 42.7658 743.921 33.9291 741.595 19.9599C740.178 12.6562 734.867 8.21209 728.759 7.64418C717.478 6.55392 708.089 16.1754 712.659 26.3689C714.164 29.9886 716.717 32.3017 718.941 33.763C723.766 36.4887 727.057 35.2719 726.954 35.4641C727.075 35.3201 723.61 35.8799 719.686 32.6942C717.802 31.1566 715.862 28.7195 715.031 25.5365C712.67 17.1398 720.02 10.9511 728.063 12.5069C732.198 13.2087 735.184 16.5471 735.877 20.9685C737.478 31.7908 728.605 39.0402 720.087 45.174C710.619 51.9044 701.999 60.8924 696.179 70.3472C690.274 79.8737 687.046 89.9198 685.383 98.5857C683.653 107.29 683.992 114.715 684.402 119.774C684.609 122.318 685.004 124.286 685.234 125.627Z" fill="url(#paint1_linear_164_553)"/>
<path id="leftantenae_2" d="M638.266 50.5307C647.683 56.9899 655.358 64.7859 661.1 73.591C671.272 89.3939 675.824 106.28 676.09 119.724C676.278 122.22 676.195 124.186 676.178 125.531C676.157 126.879 676.146 127.598 676.146 127.598C676.146 127.598 676.275 126.892 676.515 125.566C676.753 124.237 677.16 122.286 677.385 119.76C678.994 101.513 674.385 84.2238 665.988 70.4743C660.246 61.0054 651.7 51.9739 642.275 45.1778C633.814 38.9972 625.02 31.7591 626.705 21.0125C628.323 11.3816 639.886 10.3824 644.932 16.1069C649.044 20.547 647.443 28.0979 642.346 32.2239C638.582 35.2516 635.342 34.6964 635.45 34.841C635.36 34.6488 638.426 35.861 643.087 33.2947C650.74 28.3604 652.311 19.3275 647.828 13.696C640.547 4.50243 623.811 5.8954 620.989 19.9932C618.604 33.7655 628.312 42.8084 638.266 50.5307Z" fill="url(#paint2_linear_164_553)"/>
</g>
<path id="4.95 - 6 hypo but&#226;&#128;&#168; close to normal" d="M556.907 435.312V433.693L566.634 418.182H567.827V420.898H566.942L559.134 433.384V433.523H571.886V435.312H556.907ZM567.092 440V434.801V434.055V418.182H568.988V440H567.092ZM576.77 440.16C576.351 440.16 575.989 440.011 575.684 439.712C575.385 439.407 575.236 439.045 575.236 438.626C575.236 438.2 575.385 437.837 575.684 437.539C575.989 437.241 576.351 437.092 576.77 437.092C577.196 437.092 577.559 437.241 577.857 437.539C578.155 437.837 578.304 438.2 578.304 438.626C578.304 438.903 578.233 439.158 578.091 439.393C577.956 439.627 577.772 439.815 577.537 439.957C577.31 440.092 577.054 440.16 576.77 440.16ZM589.656 417.884C590.565 417.891 591.445 418.075 592.298 418.438C593.157 418.793 593.931 419.368 594.62 420.163C595.309 420.952 595.856 422.003 596.261 423.317C596.665 424.624 596.868 426.232 596.868 428.143C596.868 429.925 596.712 431.559 596.399 433.043C596.087 434.528 595.618 435.813 594.993 436.9C594.375 437.979 593.594 438.817 592.649 439.414C591.712 440.004 590.614 440.298 589.357 440.298C588.185 440.298 587.145 440.053 586.236 439.563C585.334 439.073 584.602 438.395 584.041 437.528C583.48 436.655 583.132 435.646 582.997 434.503H584.957C585.149 435.668 585.618 436.626 586.364 437.379C587.116 438.132 588.114 438.509 589.357 438.509C591.14 438.509 592.525 437.678 593.512 436.016C594.499 434.354 594.993 431.989 594.993 428.92H594.854C594.513 429.56 594.066 430.117 593.512 430.593C592.965 431.069 592.34 431.442 591.637 431.712C590.934 431.974 590.192 432.106 589.411 432.106C588.196 432.106 587.085 431.8 586.076 431.19C585.067 430.572 584.261 429.73 583.658 428.665C583.054 427.592 582.752 426.371 582.752 425C582.752 423.707 583.036 422.521 583.604 421.442C584.18 420.355 584.982 419.489 586.012 418.842C587.049 418.189 588.263 417.869 589.656 417.884ZM589.656 419.673C588.711 419.673 587.862 419.915 587.109 420.398C586.364 420.874 585.771 421.516 585.33 422.326C584.897 423.129 584.68 424.02 584.68 425C584.68 425.987 584.897 426.886 585.33 427.695C585.771 428.498 586.364 429.137 587.109 429.613C587.862 430.082 588.711 430.316 589.656 430.316C590.38 430.316 591.055 430.17 591.68 429.879C592.305 429.581 592.844 429.176 593.299 428.665C593.761 428.153 594.109 427.575 594.343 426.928C594.585 426.275 594.68 425.589 594.631 424.872C594.545 423.878 594.279 422.99 593.832 422.209C593.391 421.42 592.809 420.803 592.085 420.355C591.367 419.901 590.558 419.673 589.656 419.673ZM607.756 440.298C606.541 440.298 605.455 440.053 604.496 439.563C603.544 439.066 602.784 438.384 602.216 437.518C601.655 436.651 601.357 435.661 601.321 434.545H603.249C603.313 435.703 603.768 436.655 604.613 437.401C605.458 438.139 606.506 438.509 607.756 438.509C608.729 438.509 609.595 438.278 610.355 437.816C611.115 437.347 611.708 436.708 612.134 435.898C612.567 435.082 612.784 434.162 612.784 433.139C612.777 432.074 612.546 431.136 612.092 430.327C611.637 429.51 611.019 428.871 610.238 428.409C609.464 427.947 608.594 427.717 607.628 427.717C606.896 427.71 606.179 427.83 605.476 428.079C604.773 428.327 604.187 428.647 603.718 429.038L601.726 428.782L603.036 418.182H613.817V419.972H604.709L603.835 427.269H603.942C604.425 426.864 605.011 426.534 605.7 426.278C606.396 426.023 607.131 425.895 607.905 425.895C609.19 425.895 610.344 426.204 611.367 426.822C612.397 427.44 613.21 428.292 613.807 429.379C614.411 430.458 614.712 431.701 614.712 433.107C614.712 434.485 614.411 435.717 613.807 436.804C613.21 437.884 612.386 438.736 611.335 439.361C610.291 439.986 609.098 440.298 607.756 440.298ZM636.589 428.196V429.986H627.512V428.196H636.589ZM656.586 440.298C655.684 440.291 654.803 440.11 653.944 439.755C653.084 439.393 652.31 438.814 651.621 438.018C650.932 437.216 650.385 436.158 649.98 434.844C649.576 433.53 649.373 431.914 649.373 429.996C649.373 428.221 649.529 426.594 649.842 425.117C650.154 423.64 650.623 422.362 651.248 421.282C651.873 420.202 652.654 419.368 653.592 418.778C654.529 418.182 655.627 417.884 656.884 417.884C658.063 417.884 659.103 418.129 660.005 418.619C660.907 419.102 661.639 419.776 662.2 420.643C662.761 421.509 663.113 422.507 663.255 423.636H661.294C661.096 422.486 660.623 421.538 659.877 420.792C659.132 420.046 658.134 419.673 656.884 419.673C655.094 419.673 653.709 420.504 652.729 422.166C651.749 423.821 651.255 426.172 651.248 429.219H651.387C651.735 428.572 652.182 428.015 652.729 427.546C653.283 427.07 653.912 426.701 654.615 426.438C655.318 426.168 656.056 426.033 656.831 426.033C658.045 426.033 659.157 426.342 660.165 426.96C661.174 427.571 661.98 428.413 662.583 429.485C663.187 430.55 663.489 431.768 663.489 433.139C663.489 434.439 663.201 435.636 662.626 436.729C662.058 437.823 661.255 438.693 660.218 439.339C659.189 439.986 657.978 440.305 656.586 440.298ZM656.586 438.509C657.537 438.509 658.386 438.267 659.132 437.784C659.885 437.301 660.478 436.655 660.911 435.845C661.344 435.028 661.561 434.126 661.561 433.139C661.561 432.152 661.344 431.257 660.911 430.455C660.478 429.652 659.885 429.013 659.132 428.537C658.386 428.061 657.537 427.823 656.586 427.823C655.861 427.823 655.186 427.972 654.561 428.271C653.936 428.562 653.393 428.963 652.931 429.474C652.477 429.979 652.129 430.558 651.887 431.211C651.653 431.864 651.564 432.55 651.621 433.267C651.699 434.268 651.958 435.167 652.399 435.962C652.846 436.751 653.429 437.372 654.146 437.827C654.87 438.281 655.684 438.509 656.586 438.509ZM678.404 429.773V440H676.507V418.182H678.404V426.204H678.574C678.958 425.359 679.551 424.684 680.353 424.18C681.163 423.675 682.186 423.423 683.422 423.423C684.529 423.423 685.502 423.651 686.341 424.105C687.179 424.56 687.832 425.231 688.301 426.119C688.77 427.006 689.004 428.1 689.004 429.4V440H687.097V429.517C687.097 428.168 686.721 427.106 685.968 426.332C685.222 425.55 684.213 425.16 682.942 425.16C682.069 425.16 681.291 425.344 680.609 425.714C679.927 426.083 679.387 426.616 678.99 427.312C678.599 428.001 678.404 428.821 678.404 429.773ZM694.733 446.136C694.356 446.136 694.005 446.101 693.678 446.03C693.351 445.959 693.092 445.881 692.9 445.795L693.412 444.123C694.058 444.322 694.633 444.393 695.138 444.336C695.642 444.286 696.089 444.059 696.48 443.654C696.871 443.256 697.219 442.646 697.524 441.822L698.121 440.16L692.101 423.636H694.157L699.015 437.496H699.165L704.023 423.636H706.079L699.154 442.589C698.863 443.377 698.504 444.034 698.078 444.56C697.652 445.092 697.158 445.487 696.597 445.742C696.043 446.005 695.422 446.136 694.733 446.136ZM709.789 446.136V423.636H711.632V426.758H711.855C712.083 426.268 712.395 425.767 712.793 425.256C713.191 424.737 713.716 424.3 714.37 423.945C715.03 423.59 715.861 423.413 716.863 423.413C718.212 423.413 719.391 423.768 720.4 424.478C721.415 425.181 722.203 426.168 722.765 427.44C723.333 428.704 723.617 430.178 723.617 431.861C723.617 433.551 723.333 435.032 722.765 436.303C722.203 437.575 721.415 438.565 720.4 439.276C719.391 439.986 718.219 440.341 716.884 440.341C715.897 440.341 715.069 440.163 714.402 439.808C713.741 439.453 713.205 439.016 712.793 438.498C712.388 437.972 712.076 437.461 711.855 436.964H711.685V446.136H709.789ZM711.664 431.829C711.664 433.15 711.859 434.322 712.25 435.344C712.647 436.36 713.216 437.159 713.954 437.741C714.7 438.317 715.602 438.604 716.66 438.604C717.747 438.604 718.663 438.306 719.409 437.71C720.162 437.106 720.733 436.293 721.124 435.27C721.522 434.247 721.721 433.1 721.721 431.829C721.721 430.572 721.525 429.439 721.135 428.43C720.751 427.422 720.183 426.623 719.43 426.033C718.677 425.437 717.754 425.138 716.66 425.138C715.595 425.138 714.689 425.426 713.944 426.001C713.198 426.57 712.63 427.358 712.239 428.366C711.855 429.368 711.664 430.522 711.664 431.829ZM734.137 440.341C732.724 440.341 731.474 439.982 730.387 439.265C729.308 438.548 728.462 437.557 727.852 436.293C727.241 435.021 726.935 433.555 726.935 431.893C726.935 430.217 727.241 428.743 727.852 427.472C728.462 426.193 729.308 425.199 730.387 424.489C731.474 423.771 732.724 423.413 734.137 423.413C735.55 423.413 736.797 423.771 737.876 424.489C738.956 425.206 739.801 426.2 740.412 427.472C741.03 428.743 741.339 430.217 741.339 431.893C741.339 433.555 741.033 435.021 740.423 436.293C739.812 437.557 738.963 438.548 737.876 439.265C736.797 439.982 735.55 440.341 734.137 440.341ZM734.137 438.604C735.273 438.604 736.236 438.299 737.024 437.688C737.813 437.077 738.409 436.264 738.814 435.249C739.226 434.233 739.432 433.114 739.432 431.893C739.432 430.671 739.226 429.549 738.814 428.526C738.409 427.504 737.813 426.683 737.024 426.065C736.236 425.447 735.273 425.138 734.137 425.138C733.008 425.138 732.045 425.447 731.25 426.065C730.462 426.683 729.862 427.504 729.45 428.526C729.045 429.549 728.842 430.671 728.842 431.893C728.842 433.114 729.045 434.233 729.45 435.249C729.862 436.264 730.462 437.077 731.25 437.688C732.038 438.299 733.001 438.604 734.137 438.604ZM754.333 440V418.182H756.24V426.758H756.411C756.624 426.268 756.929 425.763 757.327 425.245C757.732 424.727 758.261 424.293 758.914 423.945C759.575 423.59 760.406 423.413 761.407 423.413C762.749 423.413 763.928 423.768 764.944 424.478C765.96 425.181 766.752 426.168 767.32 427.44C767.888 428.704 768.172 430.178 768.172 431.861C768.172 433.551 767.888 435.032 767.32 436.303C766.759 437.575 765.97 438.565 764.955 439.276C763.946 439.986 762.774 440.341 761.439 440.341C760.445 440.341 759.614 440.163 758.946 439.808C758.286 439.453 757.753 439.016 757.348 438.498C756.943 437.972 756.631 437.461 756.411 436.964H756.176V440H754.333ZM756.208 431.829C756.208 433.15 756.404 434.322 756.794 435.344C757.192 436.36 757.76 437.159 758.499 437.741C759.244 438.317 760.146 438.604 761.205 438.604C762.291 438.604 763.211 438.306 763.964 437.71C764.717 437.106 765.289 436.293 765.679 435.27C766.07 434.247 766.265 433.1 766.265 431.829C766.265 430.572 766.07 429.439 765.679 428.43C765.296 427.422 764.727 426.623 763.975 426.033C763.222 425.437 762.298 425.138 761.205 425.138C760.139 425.138 759.234 425.426 758.488 426.001C757.749 426.57 757.185 427.358 756.794 428.366C756.404 429.368 756.208 430.522 756.208 431.829ZM782.735 433.746V423.636H784.632V440H782.735V437.283H782.586C782.203 438.121 781.595 438.821 780.764 439.382C779.933 439.936 778.918 440.213 777.718 440.213C776.673 440.213 775.747 439.986 774.937 439.531C774.127 439.07 773.492 438.395 773.03 437.507C772.568 436.619 772.338 435.529 772.338 434.237V423.636H774.234V434.119C774.234 435.398 774.61 436.428 775.363 437.209C776.116 437.983 777.082 438.37 778.261 438.37C778.999 438.37 779.71 438.192 780.392 437.837C781.073 437.482 781.634 436.964 782.075 436.282C782.515 435.593 782.735 434.748 782.735 433.746ZM796.097 423.636V425.288H788.288V423.636H796.097ZM790.728 419.716H792.635V435.728C792.635 436.41 792.752 436.946 792.987 437.337C793.221 437.72 793.526 437.994 793.903 438.157C794.279 438.313 794.68 438.391 795.107 438.391C795.355 438.391 795.568 438.377 795.746 438.349C795.923 438.313 796.08 438.278 796.214 438.242L796.619 439.957C796.435 440.028 796.207 440.092 795.938 440.149C795.668 440.213 795.334 440.245 794.936 440.245C794.24 440.245 793.569 440.092 792.923 439.787C792.283 439.482 791.758 439.027 791.346 438.423C790.934 437.82 790.728 437.07 790.728 436.175V419.716ZM572.333 476.341C570.87 476.341 569.595 475.975 568.509 475.244C567.429 474.512 566.591 473.511 565.994 472.239C565.398 470.968 565.099 469.519 565.099 467.893C565.099 466.252 565.401 464.793 566.005 463.514C566.616 462.236 567.461 461.234 568.54 460.51C569.62 459.778 570.874 459.413 572.301 459.413C573.395 459.413 574.386 459.626 575.273 460.052C576.161 460.471 576.893 461.064 577.468 461.831C578.05 462.591 578.416 463.479 578.565 464.494H576.648C576.449 463.571 575.969 462.783 575.21 462.129C574.457 461.469 573.498 461.138 572.333 461.138C571.289 461.138 570.366 461.423 569.563 461.991C568.761 462.552 568.132 463.337 567.678 464.345C567.23 465.347 567.006 466.508 567.006 467.829C567.006 469.157 567.227 470.332 567.667 471.355C568.107 472.371 568.725 473.166 569.521 473.741C570.323 474.317 571.261 474.604 572.333 474.604C573.058 474.604 573.718 474.469 574.315 474.2C574.918 473.923 575.423 473.532 575.827 473.028C576.239 472.523 576.516 471.923 576.658 471.227H578.576C578.434 472.214 578.082 473.095 577.521 473.869C576.967 474.636 576.246 475.24 575.359 475.68C574.478 476.121 573.469 476.341 572.333 476.341ZM584.537 454.182V476H582.64V454.182H584.537ZM595.914 476.341C594.501 476.341 593.251 475.982 592.164 475.265C591.085 474.548 590.24 473.557 589.629 472.293C589.018 471.021 588.713 469.555 588.713 467.893C588.713 466.217 589.018 464.743 589.629 463.472C590.24 462.193 591.085 461.199 592.164 460.489C593.251 459.771 594.501 459.413 595.914 459.413C597.328 459.413 598.574 459.771 599.654 460.489C600.733 461.206 601.578 462.2 602.189 463.472C602.807 464.743 603.116 466.217 603.116 467.893C603.116 469.555 602.811 471.021 602.2 472.293C601.589 473.557 600.74 474.548 599.654 475.265C598.574 475.982 597.328 476.341 595.914 476.341ZM595.914 474.604C597.051 474.604 598.013 474.299 598.801 473.688C599.59 473.077 600.186 472.264 600.591 471.249C601.003 470.233 601.209 469.114 601.209 467.893C601.209 466.671 601.003 465.549 600.591 464.526C600.186 463.504 599.59 462.683 598.801 462.065C598.013 461.447 597.051 461.138 595.914 461.138C594.785 461.138 593.823 461.447 593.027 462.065C592.239 462.683 591.639 463.504 591.227 464.526C590.822 465.549 590.62 466.671 590.62 467.893C590.62 469.114 590.822 470.233 591.227 471.249C591.639 472.264 592.239 473.077 593.027 473.688C593.816 474.299 594.778 474.604 595.914 474.604ZM618.273 463.227L616.537 463.717C616.366 463.227 616.125 462.783 615.812 462.385C615.5 461.987 615.091 461.671 614.587 461.437C614.09 461.202 613.472 461.085 612.733 461.085C611.626 461.085 610.716 461.348 610.006 461.874C609.296 462.399 608.941 463.077 608.941 463.908C608.941 464.612 609.182 465.183 609.665 465.624C610.155 466.057 610.908 466.401 611.924 466.657L614.395 467.264C615.766 467.598 616.792 468.127 617.474 468.852C618.163 469.576 618.508 470.485 618.508 471.579C618.508 472.502 618.252 473.322 617.741 474.04C617.229 474.757 616.515 475.322 615.599 475.734C614.69 476.138 613.635 476.341 612.435 476.341C610.837 476.341 609.52 475.982 608.483 475.265C607.446 474.54 606.782 473.496 606.491 472.133L608.312 471.685C608.547 472.658 609.005 473.393 609.687 473.891C610.376 474.388 611.281 474.636 612.403 474.636C613.66 474.636 614.665 474.356 615.418 473.795C616.171 473.227 616.547 472.516 616.547 471.664C616.547 471.004 616.327 470.45 615.887 470.002C615.447 469.548 614.779 469.214 613.884 469.001L611.21 468.362C609.79 468.021 608.738 467.481 608.057 466.742C607.375 466.004 607.034 465.087 607.034 463.994C607.034 463.092 607.279 462.3 607.769 461.618C608.259 460.929 608.934 460.389 609.793 459.999C610.653 459.608 611.633 459.413 612.733 459.413C614.232 459.413 615.429 459.754 616.324 460.435C617.226 461.11 617.876 462.04 618.273 463.227ZM629.276 476.341C627.749 476.341 626.428 475.986 625.312 475.276C624.197 474.558 623.335 473.567 622.724 472.303C622.12 471.032 621.818 469.569 621.818 467.914C621.818 466.266 622.12 464.803 622.724 463.525C623.335 462.239 624.176 461.234 625.249 460.51C626.328 459.778 627.575 459.413 628.988 459.413C629.876 459.413 630.732 459.576 631.555 459.903C632.379 460.222 633.118 460.716 633.771 461.384C634.432 462.044 634.954 462.879 635.337 463.887C635.721 464.888 635.913 466.075 635.913 467.445V468.383H623.129V466.71H633.974C633.974 465.659 633.761 464.714 633.335 463.876C632.915 463.031 632.33 462.364 631.577 461.874C630.831 461.384 629.968 461.138 628.988 461.138C627.951 461.138 627.038 461.415 626.25 461.969C625.462 462.523 624.844 463.255 624.396 464.164C623.956 465.073 623.732 466.067 623.725 467.147V468.148C623.725 469.448 623.949 470.585 624.396 471.558C624.851 472.523 625.494 473.273 626.325 473.805C627.156 474.338 628.139 474.604 629.276 474.604C630.05 474.604 630.728 474.484 631.31 474.242C631.9 474.001 632.393 473.678 632.791 473.273C633.196 472.861 633.501 472.41 633.707 471.92L635.508 472.506C635.259 473.195 634.851 473.83 634.283 474.413C633.722 474.995 633.018 475.464 632.173 475.819C631.335 476.167 630.369 476.341 629.276 476.341ZM654.974 459.636V461.288H647.165V459.636H654.974ZM649.605 455.716H651.512V471.728C651.512 472.41 651.629 472.946 651.863 473.337C652.098 473.72 652.403 473.994 652.78 474.157C653.156 474.313 653.557 474.391 653.983 474.391C654.232 474.391 654.445 474.377 654.623 474.349C654.8 474.313 654.956 474.278 655.091 474.242L655.496 475.957C655.312 476.028 655.084 476.092 654.814 476.149C654.545 476.213 654.211 476.245 653.813 476.245C653.117 476.245 652.446 476.092 651.8 475.787C651.16 475.482 650.635 475.027 650.223 474.423C649.811 473.82 649.605 473.07 649.605 472.175V455.716ZM665.465 476.341C664.052 476.341 662.802 475.982 661.715 475.265C660.636 474.548 659.79 473.557 659.18 472.293C658.569 471.021 658.263 469.555 658.263 467.893C658.263 466.217 658.569 464.743 659.18 463.472C659.79 462.193 660.636 461.199 661.715 460.489C662.802 459.771 664.052 459.413 665.465 459.413C666.879 459.413 668.125 459.771 669.205 460.489C670.284 461.206 671.129 462.2 671.74 463.472C672.358 464.743 672.667 466.217 672.667 467.893C672.667 469.555 672.362 471.021 671.751 472.293C671.14 473.557 670.291 474.548 669.205 475.265C668.125 475.982 666.879 476.341 665.465 476.341ZM665.465 474.604C666.602 474.604 667.564 474.299 668.352 473.688C669.141 473.077 669.737 472.264 670.142 471.249C670.554 470.233 670.76 469.114 670.76 467.893C670.76 466.671 670.554 465.549 670.142 464.526C669.737 463.504 669.141 462.683 668.352 462.065C667.564 461.447 666.602 461.138 665.465 461.138C664.336 461.138 663.374 461.447 662.578 462.065C661.79 462.683 661.19 463.504 660.778 464.526C660.373 465.549 660.17 466.671 660.17 467.893C660.17 469.114 660.373 470.233 660.778 471.249C661.19 472.264 661.79 473.077 662.578 473.688C663.366 474.299 664.329 474.604 665.465 474.604ZM687.164 465.773V476H685.267V459.636H687.11V462.204H687.281C687.664 461.366 688.261 460.695 689.07 460.19C689.887 459.679 690.896 459.423 692.096 459.423C693.197 459.423 694.163 459.654 694.994 460.116C695.832 460.57 696.482 461.241 696.943 462.129C697.412 463.017 697.646 464.107 697.646 465.4V476H695.75V465.517C695.75 464.175 695.374 463.113 694.621 462.332C693.875 461.55 692.874 461.16 691.617 461.16C690.757 461.16 689.994 461.344 689.326 461.714C688.659 462.083 688.129 462.616 687.739 463.312C687.355 464.001 687.164 464.821 687.164 465.773ZM709 476.341C707.587 476.341 706.337 475.982 705.25 475.265C704.171 474.548 703.326 473.557 702.715 472.293C702.104 471.021 701.799 469.555 701.799 467.893C701.799 466.217 702.104 464.743 702.715 463.472C703.326 462.193 704.171 461.199 705.25 460.489C706.337 459.771 707.587 459.413 709 459.413C710.414 459.413 711.66 459.771 712.74 460.489C713.819 461.206 714.664 462.2 715.275 463.472C715.893 464.743 716.202 466.217 716.202 467.893C716.202 469.555 715.897 471.021 715.286 472.293C714.675 473.557 713.826 474.548 712.74 475.265C711.66 475.982 710.414 476.341 709 476.341ZM709 474.604C710.137 474.604 711.099 474.299 711.887 473.688C712.676 473.077 713.272 472.264 713.677 471.249C714.089 470.233 714.295 469.114 714.295 467.893C714.295 466.671 714.089 465.549 713.677 464.526C713.272 463.504 712.676 462.683 711.887 462.065C711.099 461.447 710.137 461.138 709 461.138C707.871 461.138 706.909 461.447 706.113 462.065C705.325 462.683 704.725 463.504 704.313 464.526C703.908 465.549 703.706 466.671 703.706 467.893C703.706 469.114 703.908 470.233 704.313 471.249C704.725 472.264 705.325 473.077 706.113 473.688C706.902 474.299 707.864 474.604 709 474.604ZM720.365 476V459.636H722.208V462.151H722.346C722.673 461.327 723.241 460.663 724.051 460.158C724.868 459.647 725.791 459.391 726.821 459.391C726.977 459.391 727.151 459.395 727.343 459.402C727.535 459.409 727.694 459.416 727.822 459.423V461.352C727.737 461.337 727.588 461.316 727.375 461.288C727.162 461.259 726.931 461.245 726.682 461.245C725.83 461.245 725.07 461.426 724.403 461.788C723.742 462.143 723.22 462.637 722.836 463.269C722.453 463.901 722.261 464.622 722.261 465.432V476H720.365ZM731.058 476V459.636H732.901V462.151H733.072C733.398 461.305 733.942 460.641 734.702 460.158C735.469 459.668 736.388 459.423 737.461 459.423C738.59 459.423 739.517 459.69 740.241 460.222C740.973 460.748 741.52 461.472 741.882 462.396H742.021C742.39 461.487 742.99 460.766 743.821 460.233C744.659 459.693 745.675 459.423 746.868 459.423C748.388 459.423 749.588 459.903 750.469 460.862C751.349 461.813 751.79 463.205 751.79 465.038V476H749.893V465.038C749.893 463.745 749.563 462.776 748.903 462.129C748.242 461.483 747.372 461.16 746.293 461.16C745.043 461.16 744.08 461.543 743.406 462.31C742.731 463.077 742.393 464.05 742.393 465.229V476H740.455V464.867C740.455 463.759 740.146 462.864 739.528 462.183C738.91 461.501 738.04 461.16 736.918 461.16C736.165 461.16 735.487 461.344 734.883 461.714C734.286 462.083 733.814 462.598 733.466 463.259C733.125 463.912 732.955 464.665 732.955 465.517V476H731.058ZM761.381 476.373C760.393 476.373 759.491 476.181 758.675 475.798C757.858 475.407 757.208 474.846 756.725 474.114C756.242 473.376 756.001 472.481 756.001 471.43C756.001 470.62 756.153 469.938 756.459 469.384C756.764 468.83 757.197 468.376 757.758 468.021C758.319 467.665 758.983 467.385 759.751 467.179C760.518 466.973 761.363 466.813 762.286 466.7C763.202 466.586 763.976 466.487 764.608 466.401C765.248 466.316 765.734 466.181 766.068 465.996C766.402 465.812 766.569 465.513 766.569 465.102V464.718C766.569 463.603 766.235 462.726 765.567 462.087C764.907 461.44 763.955 461.117 762.712 461.117C761.533 461.117 760.571 461.376 759.825 461.895C759.086 462.413 758.568 463.024 758.27 463.727L756.469 463.077C756.839 462.183 757.35 461.469 758.003 460.936C758.657 460.396 759.388 460.009 760.198 459.775C761.008 459.533 761.828 459.413 762.659 459.413C763.284 459.413 763.934 459.494 764.608 459.658C765.29 459.821 765.922 460.105 766.505 460.51C767.087 460.908 767.559 461.465 767.922 462.183C768.284 462.893 768.465 463.795 768.465 464.888V476H766.569V473.411H766.452C766.224 473.894 765.887 474.363 765.439 474.817C764.992 475.272 764.431 475.645 763.756 475.936C763.081 476.227 762.29 476.373 761.381 476.373ZM761.636 474.636C762.645 474.636 763.518 474.413 764.257 473.965C764.996 473.518 765.564 472.925 765.961 472.186C766.366 471.44 766.569 470.62 766.569 469.725V467.36C766.427 467.495 766.189 467.616 765.855 467.722C765.528 467.829 765.148 467.925 764.715 468.01C764.289 468.088 763.863 468.156 763.437 468.212C763.01 468.269 762.627 468.319 762.286 468.362C761.363 468.475 760.574 468.653 759.921 468.894C759.268 469.136 758.767 469.469 758.419 469.896C758.071 470.315 757.897 470.854 757.897 471.515C757.897 472.509 758.252 473.28 758.962 473.827C759.672 474.366 760.564 474.636 761.636 474.636ZM775.406 454.182V476H773.509V454.182H775.406Z" fill="black"/>
</g>
<g id="euthyroid butterfly">
<path id="Eu-thyroid 0.35 - 4.94" d="M1058.9 440V418.182H1071.55V419.972H1060.89V428.185H1070.88V429.975H1060.89V438.21H1071.77V440H1058.9ZM1086.71 433.746V423.636H1088.61V440H1086.71V437.283H1086.56C1086.18 438.121 1085.57 438.821 1084.74 439.382C1083.91 439.936 1082.9 440.213 1081.7 440.213C1080.65 440.213 1079.73 439.986 1078.92 439.531C1078.11 439.07 1077.47 438.395 1077.01 437.507C1076.55 436.619 1076.32 435.529 1076.32 434.237V423.636H1078.21V434.119C1078.21 435.398 1078.59 436.428 1079.34 437.209C1080.09 437.983 1081.06 438.37 1082.24 438.37C1082.98 438.37 1083.69 438.192 1084.37 437.837C1085.05 437.482 1085.61 436.964 1086.05 436.282C1086.49 435.593 1086.71 434.748 1086.71 433.746ZM1102.46 429.751V431.541H1093.39V429.751H1102.46ZM1113.67 423.636V425.288H1105.86V423.636H1113.67ZM1108.3 419.716H1110.21V435.728C1110.21 436.41 1110.32 436.946 1110.56 437.337C1110.79 437.72 1111.1 437.994 1111.47 438.157C1111.85 438.313 1112.25 438.391 1112.68 438.391C1112.93 438.391 1113.14 438.377 1113.32 438.349C1113.5 438.313 1113.65 438.278 1113.79 438.242L1114.19 439.957C1114.01 440.028 1113.78 440.092 1113.51 440.149C1113.24 440.213 1112.91 440.245 1112.51 440.245C1111.81 440.245 1111.14 440.092 1110.49 439.787C1109.86 439.482 1109.33 439.027 1108.92 438.423C1108.51 437.82 1108.3 437.07 1108.3 436.175V419.716ZM1120.22 429.773V440H1118.33V418.182H1120.22V426.204H1120.39C1120.78 425.359 1121.37 424.684 1122.17 424.18C1122.98 423.675 1124.01 423.423 1125.24 423.423C1126.35 423.423 1127.32 423.651 1128.16 424.105C1129 424.56 1129.65 425.231 1130.12 426.119C1130.59 427.006 1130.82 428.1 1130.82 429.4V440H1128.92V429.517C1128.92 428.168 1128.54 427.106 1127.79 426.332C1127.04 425.55 1126.03 425.16 1124.76 425.16C1123.89 425.16 1123.11 425.344 1122.43 425.714C1121.75 426.083 1121.21 426.616 1120.81 427.312C1120.42 428.001 1120.22 428.821 1120.22 429.773ZM1136.55 446.136C1136.18 446.136 1135.83 446.101 1135.5 446.03C1135.17 445.959 1134.91 445.881 1134.72 445.795L1135.23 444.123C1135.88 444.322 1136.45 444.393 1136.96 444.336C1137.46 444.286 1137.91 444.059 1138.3 443.654C1138.69 443.256 1139.04 442.646 1139.34 441.822L1139.94 440.16L1133.92 423.636H1135.98L1140.84 437.496H1140.98L1145.84 423.636H1147.9L1140.97 442.589C1140.68 443.377 1140.32 444.034 1139.9 444.56C1139.47 445.092 1138.98 445.487 1138.42 445.742C1137.86 446.005 1137.24 446.136 1136.55 446.136ZM1151.61 440V423.636H1153.45V426.151H1153.59C1153.92 425.327 1154.49 424.663 1155.3 424.158C1156.11 423.647 1157.04 423.391 1158.06 423.391C1158.22 423.391 1158.4 423.395 1158.59 423.402C1158.78 423.409 1158.94 423.416 1159.07 423.423V425.352C1158.98 425.337 1158.83 425.316 1158.62 425.288C1158.41 425.259 1158.18 425.245 1157.93 425.245C1157.07 425.245 1156.31 425.426 1155.65 425.788C1154.99 426.143 1154.46 426.637 1154.08 427.269C1153.7 427.901 1153.51 428.622 1153.51 429.432V440H1151.61ZM1168.16 440.341C1166.75 440.341 1165.5 439.982 1164.41 439.265C1163.33 438.548 1162.49 437.557 1161.88 436.293C1161.27 435.021 1160.96 433.555 1160.96 431.893C1160.96 430.217 1161.27 428.743 1161.88 427.472C1162.49 426.193 1163.33 425.199 1164.41 424.489C1165.5 423.771 1166.75 423.413 1168.16 423.413C1169.58 423.413 1170.82 423.771 1171.9 424.489C1172.98 425.206 1173.83 426.2 1174.44 427.472C1175.06 428.743 1175.37 430.217 1175.37 431.893C1175.37 433.555 1175.06 435.021 1174.45 436.293C1173.84 437.557 1172.99 438.548 1171.9 439.265C1170.82 439.982 1169.58 440.341 1168.16 440.341ZM1168.16 438.604C1169.3 438.604 1170.26 438.299 1171.05 437.688C1171.84 437.077 1172.44 436.264 1172.84 435.249C1173.25 434.233 1173.46 433.114 1173.46 431.893C1173.46 430.671 1173.25 429.549 1172.84 428.526C1172.44 427.504 1171.84 426.683 1171.05 426.065C1170.26 425.447 1169.3 425.138 1168.16 425.138C1167.04 425.138 1166.07 425.447 1165.28 426.065C1164.49 426.683 1163.89 427.504 1163.48 428.526C1163.07 429.549 1162.87 430.671 1162.87 431.893C1162.87 433.114 1163.07 434.233 1163.48 435.249C1163.89 436.264 1164.49 437.077 1165.28 437.688C1166.07 438.299 1167.03 438.604 1168.16 438.604ZM1179.55 440V423.636H1181.46V440H1179.55ZM1180.52 420.824C1180.13 420.824 1179.8 420.692 1179.52 420.43C1179.24 420.16 1179.1 419.837 1179.1 419.46C1179.1 419.084 1179.24 418.764 1179.52 418.501C1179.8 418.232 1180.13 418.097 1180.52 418.097C1180.91 418.097 1181.24 418.232 1181.52 418.501C1181.8 418.764 1181.94 419.084 1181.94 419.46C1181.94 419.837 1181.8 420.16 1181.52 420.43C1181.24 420.692 1180.91 420.824 1180.52 420.824ZM1192.36 440.341C1191.02 440.341 1189.85 439.986 1188.84 439.276C1187.83 438.565 1187.04 437.575 1186.47 436.303C1185.91 435.032 1185.63 433.551 1185.63 431.861C1185.63 430.178 1185.91 428.704 1186.47 427.44C1187.04 426.168 1187.83 425.181 1188.85 424.478C1189.86 423.768 1191.05 423.413 1192.4 423.413C1193.39 423.413 1194.22 423.59 1194.88 423.945C1195.54 424.293 1196.07 424.727 1196.47 425.245C1196.86 425.763 1197.17 426.268 1197.39 426.758H1197.56V418.182H1199.47V440H1197.62V436.964H1197.39C1197.17 437.461 1196.86 437.972 1196.45 438.498C1196.05 439.016 1195.51 439.453 1194.85 439.808C1194.19 440.163 1193.36 440.341 1192.36 440.341ZM1192.59 438.604C1193.65 438.604 1194.55 438.317 1195.29 437.741C1196.04 437.159 1196.61 436.36 1197 435.344C1197.4 434.322 1197.59 433.15 1197.59 431.829C1197.59 430.522 1197.4 429.368 1197.01 428.366C1196.62 427.358 1196.05 426.57 1195.3 426.001C1194.56 425.426 1193.65 425.138 1192.59 425.138C1191.49 425.138 1190.57 425.437 1189.82 426.033C1189.07 426.623 1188.5 427.422 1188.11 428.43C1187.73 429.439 1187.54 430.572 1187.54 431.829C1187.54 433.1 1187.73 434.247 1188.12 435.27C1188.51 436.293 1189.08 437.106 1189.83 437.71C1190.58 438.306 1191.5 438.604 1192.59 438.604ZM1065.2 476.298C1063.67 476.298 1062.36 475.858 1061.27 474.977C1060.19 474.089 1059.36 472.808 1058.78 471.131C1058.21 469.455 1057.92 467.442 1057.92 465.091C1057.92 462.747 1058.21 460.741 1058.78 459.072C1059.36 457.396 1060.2 456.114 1061.28 455.226C1062.38 454.331 1063.68 453.884 1065.2 453.884C1066.72 453.884 1068.03 454.331 1069.11 455.226C1070.21 456.114 1071.04 457.396 1071.62 459.072C1072.2 460.741 1072.49 462.747 1072.49 465.091C1072.49 467.442 1072.2 469.455 1071.62 471.131C1071.04 472.808 1070.21 474.089 1069.12 474.977C1068.05 475.858 1066.74 476.298 1065.2 476.298ZM1065.2 474.509C1066.89 474.509 1068.2 473.688 1069.15 472.048C1070.09 470.4 1070.56 468.081 1070.56 465.091C1070.56 463.102 1070.35 461.405 1069.91 459.999C1069.49 458.585 1068.87 457.506 1068.07 456.76C1067.27 456.014 1066.32 455.641 1065.2 455.641C1063.54 455.641 1062.23 456.472 1061.27 458.134C1060.32 459.789 1059.85 462.108 1059.85 465.091C1059.85 467.08 1060.06 468.777 1060.49 470.183C1060.92 471.589 1061.53 472.662 1062.33 473.401C1063.13 474.139 1064.09 474.509 1065.2 474.509ZM1077.51 476.16C1077.09 476.16 1076.73 476.011 1076.42 475.712C1076.12 475.407 1075.97 475.045 1075.97 474.626C1075.97 474.2 1076.12 473.837 1076.42 473.539C1076.73 473.241 1077.09 473.092 1077.51 473.092C1077.93 473.092 1078.29 473.241 1078.59 473.539C1078.89 473.837 1079.04 474.2 1079.04 474.626C1079.04 474.903 1078.97 475.158 1078.83 475.393C1078.69 475.627 1078.51 475.815 1078.27 475.957C1078.05 476.092 1077.79 476.16 1077.51 476.16ZM1090.18 476.298C1088.84 476.298 1087.64 476.057 1086.58 475.574C1085.52 475.084 1084.68 474.406 1084.07 473.539C1083.45 472.673 1083.12 471.675 1083.09 470.545H1085.1C1085.14 471.341 1085.38 472.037 1085.83 472.634C1086.29 473.223 1086.89 473.685 1087.65 474.018C1088.4 474.345 1089.24 474.509 1090.16 474.509C1091.17 474.509 1092.06 474.32 1092.82 473.944C1093.6 473.567 1094.2 473.053 1094.63 472.399C1095.07 471.739 1095.3 470.993 1095.3 470.162C1095.3 469.281 1095.07 468.504 1094.62 467.829C1094.18 467.154 1093.53 466.629 1092.7 466.252C1091.86 465.876 1090.87 465.688 1089.71 465.688H1088.43V463.898H1089.71C1090.66 463.898 1091.49 463.727 1092.22 463.386C1092.95 463.038 1093.52 462.552 1093.94 461.927C1094.36 461.302 1094.57 460.567 1094.57 459.722C1094.57 458.919 1094.39 458.212 1094.03 457.602C1093.67 456.991 1093.15 456.511 1092.49 456.163C1091.84 455.815 1091.08 455.641 1090.2 455.641C1089.36 455.641 1088.58 455.805 1087.88 456.131C1087.18 456.458 1086.61 456.92 1086.18 457.516C1085.75 458.113 1085.52 458.82 1085.49 459.636H1083.57C1083.59 458.5 1083.91 457.502 1084.5 456.643C1085.11 455.776 1085.91 455.102 1086.9 454.619C1087.9 454.129 1089.01 453.884 1090.22 453.884C1091.51 453.884 1092.62 454.146 1093.56 454.672C1094.5 455.197 1095.22 455.897 1095.73 456.771C1096.25 457.637 1096.51 458.592 1096.51 459.636C1096.51 460.879 1096.17 461.945 1095.5 462.832C1094.82 463.713 1093.91 464.324 1092.77 464.665V464.803C1094.16 465.08 1095.26 465.698 1096.05 466.657C1096.85 467.609 1097.26 468.777 1097.26 470.162C1097.26 471.327 1096.95 472.374 1096.34 473.305C1095.73 474.228 1094.89 474.96 1093.82 475.499C1092.77 476.032 1091.55 476.298 1090.18 476.298ZM1108.35 476.298C1107.13 476.298 1106.04 476.053 1105.09 475.563C1104.13 475.066 1103.37 474.384 1102.81 473.518C1102.24 472.651 1101.95 471.661 1101.91 470.545H1103.84C1103.9 471.703 1104.36 472.655 1105.2 473.401C1106.05 474.139 1107.1 474.509 1108.35 474.509C1109.32 474.509 1110.19 474.278 1110.94 473.816C1111.7 473.347 1112.3 472.708 1112.72 471.898C1113.16 471.082 1113.37 470.162 1113.37 469.139C1113.37 468.074 1113.14 467.136 1112.68 466.327C1112.23 465.51 1111.61 464.871 1110.83 464.409C1110.05 463.947 1109.18 463.717 1108.22 463.717C1107.49 463.71 1106.77 463.83 1106.07 464.079C1105.36 464.327 1104.78 464.647 1104.31 465.038L1102.32 464.782L1103.63 454.182H1114.41V455.972H1105.3L1104.43 463.269H1104.53C1105.01 462.864 1105.6 462.534 1106.29 462.278C1106.99 462.023 1107.72 461.895 1108.49 461.895C1109.78 461.895 1110.93 462.204 1111.96 462.822C1112.99 463.44 1113.8 464.292 1114.4 465.379C1115 466.458 1115.3 467.701 1115.3 469.107C1115.3 470.485 1115 471.717 1114.4 472.804C1113.8 473.884 1112.98 474.736 1111.93 475.361C1110.88 475.986 1109.69 476.298 1108.35 476.298ZM1137.18 464.196V465.986H1128.1V464.196H1137.18ZM1149.78 471.312V469.693L1159.51 454.182H1160.7V456.898H1159.82L1152.01 469.384V469.523H1164.76V471.312H1149.78ZM1159.97 476V470.801V470.055V454.182H1161.86V476H1159.97ZM1169.65 476.16C1169.23 476.16 1168.86 476.011 1168.56 475.712C1168.26 475.407 1168.11 475.045 1168.11 474.626C1168.11 474.2 1168.26 473.837 1168.56 473.539C1168.86 473.241 1169.23 473.092 1169.65 473.092C1170.07 473.092 1170.43 473.241 1170.73 473.539C1171.03 473.837 1171.18 474.2 1171.18 474.626C1171.18 474.903 1171.11 475.158 1170.97 475.393C1170.83 475.627 1170.65 475.815 1170.41 475.957C1170.19 476.092 1169.93 476.16 1169.65 476.16ZM1182.53 453.884C1183.44 453.891 1184.32 454.075 1185.17 454.438C1186.03 454.793 1186.81 455.368 1187.5 456.163C1188.18 456.952 1188.73 458.003 1189.14 459.317C1189.54 460.624 1189.74 462.232 1189.74 464.143C1189.74 465.925 1189.59 467.559 1189.27 469.043C1188.96 470.528 1188.49 471.813 1187.87 472.9C1187.25 473.979 1186.47 474.817 1185.52 475.414C1184.59 476.004 1183.49 476.298 1182.23 476.298C1181.06 476.298 1180.02 476.053 1179.11 475.563C1178.21 475.073 1177.48 474.395 1176.92 473.528C1176.36 472.655 1176.01 471.646 1175.87 470.503H1177.83C1178.02 471.668 1178.49 472.626 1179.24 473.379C1179.99 474.132 1180.99 474.509 1182.23 474.509C1184.01 474.509 1185.4 473.678 1186.39 472.016C1187.37 470.354 1187.87 467.989 1187.87 464.92H1187.73C1187.39 465.56 1186.94 466.117 1186.39 466.593C1185.84 467.069 1185.22 467.442 1184.51 467.712C1183.81 467.974 1183.07 468.106 1182.29 468.106C1181.07 468.106 1179.96 467.8 1178.95 467.19C1177.94 466.572 1177.14 465.73 1176.53 464.665C1175.93 463.592 1175.63 462.371 1175.63 461C1175.63 459.707 1175.91 458.521 1176.48 457.442C1177.05 456.355 1177.86 455.489 1178.89 454.842C1179.92 454.189 1181.14 453.869 1182.53 453.884ZM1182.53 455.673C1181.59 455.673 1180.74 455.915 1179.98 456.398C1179.24 456.874 1178.65 457.516 1178.21 458.326C1177.77 459.129 1177.56 460.02 1177.56 461C1177.56 461.987 1177.77 462.886 1178.21 463.695C1178.65 464.498 1179.24 465.137 1179.98 465.613C1180.74 466.082 1181.59 466.316 1182.53 466.316C1183.25 466.316 1183.93 466.17 1184.55 465.879C1185.18 465.581 1185.72 465.176 1186.17 464.665C1186.64 464.153 1186.98 463.575 1187.22 462.928C1187.46 462.275 1187.56 461.589 1187.51 460.872C1187.42 459.878 1187.15 458.99 1186.71 458.209C1186.27 457.42 1185.68 456.803 1184.96 456.355C1184.24 455.901 1183.43 455.673 1182.53 455.673ZM1193.73 471.312V469.693L1203.45 454.182H1204.65V456.898H1203.76L1195.95 469.384V469.523H1208.71V471.312H1193.73ZM1203.91 476V470.801V470.055V454.182H1205.81V476H1203.91Z" fill="black"/>
<path id="body_3" d="M1330.76 4.62674H1330.62C1312.48 -5.41872 1284.78 2.81856 1264.03 11.1228L1263.96 11.1891C1263.76 11.2561 1263.56 11.323 1263.36 11.39C1262.35 12.3946 1162.01 44.5534 1137.76 157.395C1136.49 149.396 1134.9 144.588 1133.18 144.588C1131.45 144.588 1129.87 149.396 1128.6 157.396C1104.35 44.5541 1004 12.3959 1003 11.3913C1002.8 11.3244 1002.6 11.2574 1002.4 11.1904L1002.33 11.1241C981.58 2.81923 953.871 -5.41738 935.799 4.62808H935.6C934.395 5.49868 927.568 8.84717 923.017 16.7496C917.93 25.4557 917.997 35.9699 921.411 45.5466C934.261 76.0847 962.439 81.6432 982.05 138.434C994.69 174.698 998.381 183.815 1043.49 183.102C966.522 225.695 979.305 337.467 1035.13 355.884C1091.92 372.204 1100.93 280.749 1125.15 215.047C1125.35 214.43 1125.54 213.888 1125.74 213.302C1126.18 243.669 1129.34 267.216 1133.18 267.216C1137.02 267.216 1140.18 243.668 1140.62 213.302C1140.82 213.888 1141.01 214.429 1141.21 215.046C1145.16 225.761 1150.65 241.03 1156.27 259.313C1160.96 275.051 1164.03 290.454 1169.92 306.192C1182.77 338.873 1198.37 365.326 1231.23 355.883C1287.05 337.467 1299.84 225.694 1222.87 183.102C1235.65 183.303 1248.83 183.838 1260.08 178.146C1263.56 176.271 1266.97 173.793 1269.78 170.645C1277.95 161.336 1280.29 149.951 1284.37 138.432C1303.98 81.6419 1332.1 76.0834 1344.95 45.5452C1348.36 35.9686 1348.43 25.4543 1343.34 16.7483C1338.79 8.8465 1331.96 5.49801 1330.76 4.62674Z" fill="url(#paint3_linear_164_553)"/>
<path id="rightantenae_3" d="M1137.23 125.627C1137.47 126.964 1137.59 127.678 1137.59 127.678C1137.59 127.678 1137.58 126.953 1137.57 125.593C1137.56 124.236 1137.49 122.255 1137.7 119.741C1138.04 106.673 1142.48 89.6593 1153.06 73.4714C1158.88 64.6802 1166.63 56.9272 1176.09 50.5342C1186.24 42.7658 1195.92 33.9291 1193.59 19.9599C1192.18 12.6562 1186.87 8.21209 1180.76 7.64418C1169.48 6.55392 1160.09 16.1754 1164.66 26.3689C1166.16 29.9886 1168.72 32.3017 1170.94 33.763C1175.77 36.4887 1179.06 35.2719 1178.95 35.4641C1179.07 35.3201 1175.61 35.8799 1171.69 32.6942C1169.8 31.1566 1167.86 28.7195 1167.03 25.5365C1164.67 17.1398 1172.02 10.9511 1180.06 12.5069C1184.2 13.2087 1187.18 16.5471 1187.88 20.9685C1189.48 31.7908 1180.6 39.0402 1172.09 45.174C1162.62 51.9044 1154 60.8924 1148.18 70.3472C1142.27 79.8737 1139.05 89.9198 1137.38 98.5857C1135.65 107.29 1135.99 114.715 1136.4 119.774C1136.61 122.318 1137 124.286 1137.23 125.627Z" fill="url(#paint4_linear_164_553)"/>
<path id="leftantenae_3" d="M1090.27 50.5307C1099.68 56.9899 1107.36 64.7859 1113.1 73.591C1123.27 89.3939 1127.82 106.28 1128.09 119.724C1128.28 122.22 1128.2 124.186 1128.18 125.531C1128.16 126.879 1128.15 127.598 1128.15 127.598C1128.15 127.598 1128.27 126.892 1128.52 125.566C1128.75 124.237 1129.16 122.286 1129.39 119.76C1130.99 101.513 1126.38 84.2238 1117.99 70.4743C1112.25 61.0054 1103.7 51.9739 1094.27 45.1778C1085.81 38.9972 1077.02 31.7591 1078.7 21.0125C1080.32 11.3816 1091.89 10.3824 1096.93 16.1069C1101.04 20.547 1099.44 28.0979 1094.35 32.2239C1090.58 35.2516 1087.34 34.6964 1087.45 34.841C1087.36 34.6488 1090.43 35.861 1095.09 33.2947C1102.74 28.3604 1104.31 19.3275 1099.83 13.696C1092.55 4.50243 1075.81 5.8954 1072.99 19.9932C1070.6 33.7655 1080.31 42.8084 1090.27 50.5307Z" fill="url(#paint5_linear_164_553)"/>
</g>
<g id="midhyper butterfly">
<path id="0.04-0.34" d="M1524.2 448.298C1522.67 448.298 1521.36 447.858 1520.27 446.977C1519.19 446.089 1518.36 444.808 1517.78 443.131C1517.21 441.455 1516.92 439.442 1516.92 437.091C1516.92 434.747 1517.21 432.741 1517.78 431.072C1518.36 429.396 1519.2 428.114 1520.28 427.226C1521.38 426.331 1522.68 425.884 1524.2 425.884C1525.72 425.884 1527.03 426.331 1528.11 427.226C1529.21 428.114 1530.04 429.396 1530.62 431.072C1531.2 432.741 1531.49 434.747 1531.49 437.091C1531.49 439.442 1531.2 441.455 1530.62 443.131C1530.04 444.808 1529.21 446.089 1528.12 446.977C1527.05 447.858 1525.74 448.298 1524.2 448.298ZM1524.2 446.509C1525.89 446.509 1527.2 445.688 1528.15 444.048C1529.09 442.4 1529.56 440.081 1529.56 437.091C1529.56 435.102 1529.35 433.405 1528.91 431.999C1528.49 430.585 1527.87 429.506 1527.07 428.76C1526.27 428.014 1525.32 427.641 1524.2 427.641C1522.54 427.641 1521.23 428.472 1520.27 430.134C1519.32 431.789 1518.85 434.108 1518.85 437.091C1518.85 439.08 1519.06 440.777 1519.49 442.183C1519.92 443.589 1520.53 444.662 1521.33 445.401C1522.13 446.139 1523.09 446.509 1524.2 446.509ZM1536.51 448.16C1536.09 448.16 1535.73 448.011 1535.42 447.712C1535.12 447.407 1534.97 447.045 1534.97 446.626C1534.97 446.2 1535.12 445.837 1535.42 445.539C1535.73 445.241 1536.09 445.092 1536.51 445.092C1536.93 445.092 1537.29 445.241 1537.59 445.539C1537.89 445.837 1538.04 446.2 1538.04 446.626C1538.04 446.903 1537.97 447.158 1537.83 447.393C1537.69 447.627 1537.51 447.815 1537.27 447.957C1537.05 448.092 1536.79 448.16 1536.51 448.16ZM1548.84 448.298C1547.31 448.298 1546 447.858 1544.91 446.977C1543.83 446.089 1543 444.808 1542.42 443.131C1541.84 441.455 1541.56 439.442 1541.56 437.091C1541.56 434.747 1541.84 432.741 1542.42 431.072C1543 429.396 1543.84 428.114 1544.92 427.226C1546.02 426.331 1547.32 425.884 1548.84 425.884C1550.36 425.884 1551.67 426.331 1552.75 427.226C1553.85 428.114 1554.68 429.396 1555.26 431.072C1555.84 432.741 1556.13 434.747 1556.13 437.091C1556.13 439.442 1555.84 441.455 1555.26 443.131C1554.68 444.808 1553.85 446.089 1552.76 446.977C1551.68 447.858 1550.38 448.298 1548.84 448.298ZM1548.84 446.509C1550.53 446.509 1551.84 445.688 1552.78 444.048C1553.73 442.4 1554.2 440.081 1554.2 437.091C1554.2 435.102 1553.99 433.405 1553.55 431.999C1553.13 430.585 1552.51 429.506 1551.71 428.76C1550.91 428.014 1549.96 427.641 1548.84 427.641C1547.17 427.641 1545.86 428.472 1544.91 430.134C1543.96 431.789 1543.48 434.108 1543.48 437.091C1543.48 439.08 1543.7 440.777 1544.12 442.183C1544.56 443.589 1545.17 444.662 1545.97 445.401C1546.77 446.139 1547.73 446.509 1548.84 446.509ZM1559.94 443.312V441.693L1569.67 426.182H1570.86V428.898H1569.98L1562.17 441.384V441.523H1574.92V443.312H1559.94ZM1570.13 448V442.801V442.055V426.182H1572.03V448H1570.13ZM1588.15 436.196V437.986H1579.07V436.196H1588.15ZM1599.61 448.298C1598.08 448.298 1596.77 447.858 1595.68 446.977C1594.6 446.089 1593.77 444.808 1593.19 443.131C1592.62 441.455 1592.33 439.442 1592.33 437.091C1592.33 434.747 1592.62 432.741 1593.19 431.072C1593.77 429.396 1594.61 428.114 1595.69 427.226C1596.79 426.331 1598.09 425.884 1599.61 425.884C1601.13 425.884 1602.44 426.331 1603.52 427.226C1604.62 428.114 1605.45 429.396 1606.03 431.072C1606.61 432.741 1606.9 434.747 1606.9 437.091C1606.9 439.442 1606.61 441.455 1606.03 443.131C1605.45 444.808 1604.62 446.089 1603.54 446.977C1602.46 447.858 1601.15 448.298 1599.61 448.298ZM1599.61 446.509C1601.3 446.509 1602.61 445.688 1603.56 444.048C1604.5 442.4 1604.97 440.081 1604.97 437.091C1604.97 435.102 1604.76 433.405 1604.32 431.999C1603.9 430.585 1603.28 429.506 1602.48 428.76C1601.69 428.014 1600.73 427.641 1599.61 427.641C1597.95 427.641 1596.64 428.472 1595.68 430.134C1594.73 431.789 1594.26 434.108 1594.26 437.091C1594.26 439.08 1594.47 440.777 1594.9 442.183C1595.33 443.589 1595.94 444.662 1596.74 445.401C1597.54 446.139 1598.5 446.509 1599.61 446.509ZM1611.92 448.16C1611.5 448.16 1611.14 448.011 1610.83 447.712C1610.53 447.407 1610.38 447.045 1610.38 446.626C1610.38 446.2 1610.53 445.837 1610.83 445.539C1611.14 445.241 1611.5 445.092 1611.92 445.092C1612.34 445.092 1612.71 445.241 1613 445.539C1613.3 445.837 1613.45 446.2 1613.45 446.626C1613.45 446.903 1613.38 447.158 1613.24 447.393C1613.1 447.627 1612.92 447.815 1612.68 447.957C1612.46 448.092 1612.2 448.16 1611.92 448.16ZM1624.59 448.298C1623.25 448.298 1622.05 448.057 1620.99 447.574C1619.93 447.084 1619.09 446.406 1618.48 445.539C1617.86 444.673 1617.53 443.675 1617.5 442.545H1619.51C1619.55 443.341 1619.79 444.037 1620.25 444.634C1620.7 445.223 1621.3 445.685 1622.06 446.018C1622.81 446.345 1623.65 446.509 1624.57 446.509C1625.58 446.509 1626.47 446.32 1627.23 445.944C1628.01 445.567 1628.61 445.053 1629.04 444.399C1629.49 443.739 1629.71 442.993 1629.71 442.162C1629.71 441.281 1629.48 440.504 1629.03 439.829C1628.59 439.154 1627.94 438.629 1627.11 438.252C1626.27 437.876 1625.28 437.688 1624.12 437.688H1622.84V435.898H1624.12C1625.07 435.898 1625.9 435.727 1626.63 435.386C1627.36 435.038 1627.93 434.552 1628.35 433.927C1628.77 433.302 1628.98 432.567 1628.98 431.722C1628.98 430.919 1628.8 430.212 1628.44 429.602C1628.08 428.991 1627.56 428.511 1626.9 428.163C1626.25 427.815 1625.49 427.641 1624.61 427.641C1623.77 427.641 1622.99 427.805 1622.29 428.131C1621.59 428.458 1621.02 428.92 1620.59 429.516C1620.16 430.113 1619.93 430.82 1619.9 431.636H1617.98C1618 430.5 1618.32 429.502 1618.91 428.643C1619.52 427.776 1620.32 427.102 1621.31 426.619C1622.31 426.129 1623.42 425.884 1624.63 425.884C1625.92 425.884 1627.03 426.146 1627.97 426.672C1628.91 427.197 1629.63 427.897 1630.14 428.771C1630.66 429.637 1630.92 430.592 1630.92 431.636C1630.92 432.879 1630.58 433.945 1629.91 434.832C1629.23 435.713 1628.32 436.324 1627.18 436.665V436.803C1628.57 437.08 1629.67 437.698 1630.46 438.657C1631.26 439.609 1631.67 440.777 1631.67 442.162C1631.67 443.327 1631.36 444.374 1630.75 445.305C1630.14 446.228 1629.3 446.96 1628.24 447.499C1627.18 448.032 1625.96 448.298 1624.59 448.298ZM1635.85 443.312V441.693L1645.58 426.182H1646.77V428.898H1645.89L1638.08 441.384V441.523H1650.83V443.312H1635.85ZM1646.04 448V442.801V442.055V426.182H1647.93V448H1646.04Z" fill="black"/>
<path id="body_4" d="M1781.76 12.6267H1781.62C1763.48 2.58128 1735.78 10.8186 1715.03 19.1228L1714.96 19.1891C1714.76 19.2561 1714.56 19.323 1714.36 19.39C1713.35 20.3946 1613.01 52.5534 1588.76 165.395C1587.49 157.396 1585.9 152.588 1584.18 152.588C1582.45 152.588 1580.87 157.396 1579.6 165.396C1555.35 52.5541 1455 20.3959 1454 19.3913C1453.8 19.3244 1453.6 19.2574 1453.4 19.1904L1453.33 19.1241C1432.58 10.8192 1404.87 2.58262 1386.8 12.6281H1386.6C1385.39 13.4987 1378.57 16.8472 1374.02 24.7496C1368.93 33.4557 1369 43.9699 1372.41 53.5466C1385.26 84.0847 1413.44 89.6432 1433.05 146.434C1445.69 182.698 1449.38 191.815 1494.49 191.102C1417.52 233.695 1430.3 345.467 1486.13 363.884C1542.92 380.204 1551.93 288.749 1576.15 223.047C1576.35 222.43 1576.54 221.888 1576.74 221.302C1577.18 251.669 1580.34 275.216 1584.18 275.216C1588.02 275.216 1591.18 251.668 1591.62 221.302C1591.82 221.888 1592.01 222.429 1592.21 223.046C1596.16 233.761 1601.65 249.03 1607.27 267.313C1611.96 283.051 1615.03 298.454 1620.92 314.192C1633.77 346.873 1649.37 373.326 1682.23 363.883C1738.05 345.467 1750.84 233.694 1673.87 191.102C1686.65 191.303 1699.83 191.838 1711.08 186.146C1714.56 184.271 1717.97 181.793 1720.78 178.645C1728.95 169.336 1731.29 157.951 1735.37 146.432C1754.98 89.6419 1783.1 84.0834 1795.95 53.5452C1799.36 43.9686 1799.43 33.4543 1794.34 24.7483C1789.79 16.8465 1782.96 13.498 1781.76 12.6267Z" fill="url(#paint6_linear_164_553)"/>
<path id="rightantenae_4" d="M1588.23 133.627C1588.47 134.964 1588.59 135.678 1588.59 135.678C1588.59 135.678 1588.58 134.953 1588.57 133.593C1588.56 132.236 1588.49 130.255 1588.7 127.741C1589.04 114.673 1593.48 97.6593 1604.06 81.4714C1609.88 72.6802 1617.63 64.9272 1627.09 58.5342C1637.24 50.7658 1646.92 41.9291 1644.59 27.9599C1643.18 20.6562 1637.87 16.2121 1631.76 15.6442C1620.48 14.5539 1611.09 24.1754 1615.66 34.3689C1617.16 37.9886 1619.72 40.3017 1621.94 41.763C1626.77 44.4887 1630.06 43.2719 1629.95 43.4641C1630.07 43.3201 1626.61 43.8799 1622.69 40.6942C1620.8 39.1566 1618.86 36.7195 1618.03 33.5365C1615.67 25.1398 1623.02 18.9511 1631.06 20.5069C1635.2 21.2087 1638.18 24.5471 1638.88 28.9685C1640.48 39.7908 1631.6 47.0402 1623.09 53.174C1613.62 59.9044 1605 68.8924 1599.18 78.3472C1593.27 87.8737 1590.05 97.9198 1588.38 106.586C1586.65 115.29 1586.99 122.715 1587.4 127.774C1587.61 130.318 1588 132.286 1588.23 133.627Z" fill="url(#paint7_linear_164_553)"/>
<path id="leftantenae_4" d="M1541.27 58.5307C1550.68 64.9899 1558.36 72.7859 1564.1 81.591C1574.27 97.3939 1578.82 114.28 1579.09 127.724C1579.28 130.22 1579.2 132.186 1579.18 133.531C1579.16 134.879 1579.15 135.598 1579.15 135.598C1579.15 135.598 1579.27 134.892 1579.52 133.566C1579.75 132.237 1580.16 130.286 1580.39 127.76C1581.99 109.513 1577.38 92.2238 1568.99 78.4743C1563.25 69.0054 1554.7 59.9739 1545.27 53.1778C1536.81 46.9972 1528.02 39.7591 1529.7 29.0125C1531.32 19.3816 1542.89 18.3824 1547.93 24.1069C1552.04 28.547 1550.44 36.0979 1545.35 40.2239C1541.58 43.2516 1538.34 42.6964 1538.45 42.841C1538.36 42.6488 1541.43 43.861 1546.09 41.2947C1553.74 36.3604 1555.31 27.3275 1550.83 21.696C1543.55 12.5024 1526.81 13.8954 1523.99 27.9932C1521.6 41.7655 1531.31 50.8084 1541.27 58.5307Z" fill="url(#paint8_linear_164_553)"/>
</g>
<g id="hyper">
<g id="hyper butterfly">
<path id="body_5" d="M2281.76 4.62674H2281.62C2263.48 -5.41872 2235.78 2.81856 2215.03 11.1228L2214.96 11.1891C2214.76 11.2561 2214.56 11.323 2214.36 11.39C2213.35 12.3946 2113.01 44.5534 2088.76 157.395C2087.49 149.396 2085.9 144.588 2084.18 144.588C2082.45 144.588 2080.87 149.396 2079.6 157.396C2055.35 44.5541 1955 12.3959 1954 11.3913C1953.8 11.3244 1953.6 11.2574 1953.4 11.1904L1953.33 11.1241C1932.58 2.81923 1904.87 -5.41738 1886.8 4.62808H1886.6C1885.39 5.49868 1878.57 8.84717 1874.02 16.7496C1868.93 25.4557 1869 35.9699 1872.41 45.5466C1885.26 76.0847 1913.44 81.6432 1933.05 138.434C1945.69 174.698 1949.38 183.815 1994.49 183.102C1917.52 225.695 1930.3 337.467 1986.13 355.884C2042.92 372.204 2051.93 280.749 2076.15 215.047C2076.35 214.43 2076.54 213.888 2076.74 213.302C2077.18 243.669 2080.34 267.216 2084.18 267.216C2088.02 267.216 2091.18 243.668 2091.62 213.302C2091.82 213.888 2092.01 214.429 2092.21 215.046C2096.16 225.761 2101.65 241.03 2107.27 259.313C2111.96 275.051 2115.03 290.454 2120.92 306.192C2133.77 338.873 2149.37 365.326 2182.23 355.883C2238.05 337.467 2250.84 225.694 2173.87 183.102C2186.65 183.303 2199.83 183.838 2211.08 178.146C2214.56 176.271 2217.97 173.793 2220.78 170.645C2228.95 161.336 2231.29 149.951 2235.37 138.432C2254.98 81.6419 2283.1 76.0834 2295.95 45.5452C2299.36 35.9686 2299.43 25.4543 2294.34 16.7483C2289.79 8.8465 2282.96 5.49801 2281.76 4.62674Z" fill="url(#paint9_linear_164_553)"/>
<path id="rightantenae_5" d="M2088.23 125.627C2088.47 126.964 2088.59 127.678 2088.59 127.678C2088.59 127.678 2088.58 126.953 2088.57 125.593C2088.56 124.236 2088.49 122.255 2088.7 119.741C2089.04 106.673 2093.48 89.6593 2104.06 73.4714C2109.88 64.6802 2117.63 56.9272 2127.09 50.5342C2137.24 42.7658 2146.92 33.9291 2144.59 19.9599C2143.18 12.6562 2137.87 8.21209 2131.76 7.64418C2120.48 6.55392 2111.09 16.1754 2115.66 26.3689C2117.16 29.9886 2119.72 32.3017 2121.94 33.763C2126.77 36.4887 2130.06 35.2719 2129.95 35.4641C2130.07 35.3201 2126.61 35.8799 2122.69 32.6942C2120.8 31.1566 2118.86 28.7195 2118.03 25.5365C2115.67 17.1398 2123.02 10.9511 2131.06 12.5069C2135.2 13.2087 2138.18 16.5471 2138.88 20.9685C2140.48 31.7908 2131.6 39.0402 2123.09 45.174C2113.62 51.9044 2105 60.8924 2099.18 70.3472C2093.27 79.8737 2090.05 89.9198 2088.38 98.5857C2086.65 107.29 2086.99 114.715 2087.4 119.774C2087.61 122.318 2088 124.286 2088.23 125.627Z" fill="url(#paint10_linear_164_553)"/>
<path id="leftantenae_5" d="M2041.27 50.5307C2050.68 56.9899 2058.36 64.7859 2064.1 73.591C2074.27 89.3939 2078.82 106.28 2079.09 119.724C2079.28 122.22 2079.2 124.186 2079.18 125.531C2079.16 126.879 2079.15 127.598 2079.15 127.598C2079.15 127.598 2079.27 126.892 2079.52 125.566C2079.75 124.237 2080.16 122.286 2080.39 119.76C2081.99 101.513 2077.38 84.2238 2068.99 70.4743C2063.25 61.0054 2054.7 51.9739 2045.27 45.1778C2036.81 38.9972 2028.02 31.7591 2029.7 21.0125C2031.32 11.3816 2042.89 10.3824 2047.93 16.1069C2052.04 20.547 2050.44 28.0979 2045.35 32.2239C2041.58 35.2516 2038.34 34.6964 2038.45 34.841C2038.36 34.6488 2041.43 35.861 2046.09 33.2947C2053.74 28.3604 2055.31 19.3275 2050.83 13.696C2043.55 4.50243 2026.81 5.8954 2023.99 19.9932C2021.6 33.7655 2031.31 42.8084 2041.27 50.5307Z" fill="url(#paint11_linear_164_553)"/>
</g>
<path id="0.04-0.34_2" d="M2024.2 448.298C2022.67 448.298 2021.36 447.858 2020.27 446.977C2019.19 446.089 2018.36 444.808 2017.78 443.131C2017.21 441.455 2016.92 439.442 2016.92 437.091C2016.92 434.747 2017.21 432.741 2017.78 431.072C2018.36 429.396 2019.2 428.114 2020.28 427.226C2021.38 426.331 2022.68 425.884 2024.2 425.884C2025.72 425.884 2027.03 426.331 2028.11 427.226C2029.21 428.114 2030.04 429.396 2030.62 431.072C2031.2 432.741 2031.49 434.747 2031.49 437.091C2031.49 439.442 2031.2 441.455 2030.62 443.131C2030.04 444.808 2029.21 446.089 2028.12 446.977C2027.05 447.858 2025.74 448.298 2024.2 448.298ZM2024.2 446.509C2025.89 446.509 2027.2 445.688 2028.15 444.048C2029.09 442.4 2029.56 440.081 2029.56 437.091C2029.56 435.102 2029.35 433.405 2028.91 431.999C2028.49 430.585 2027.87 429.506 2027.07 428.76C2026.27 428.014 2025.32 427.641 2024.2 427.641C2022.54 427.641 2021.23 428.472 2020.27 430.134C2019.32 431.789 2018.85 434.108 2018.85 437.091C2018.85 439.08 2019.06 440.777 2019.49 442.183C2019.92 443.589 2020.53 444.662 2021.33 445.401C2022.13 446.139 2023.09 446.509 2024.2 446.509ZM2036.51 448.16C2036.09 448.16 2035.73 448.011 2035.42 447.712C2035.12 447.407 2034.97 447.045 2034.97 446.626C2034.97 446.2 2035.12 445.837 2035.42 445.539C2035.73 445.241 2036.09 445.092 2036.51 445.092C2036.93 445.092 2037.29 445.241 2037.59 445.539C2037.89 445.837 2038.04 446.2 2038.04 446.626C2038.04 446.903 2037.97 447.158 2037.83 447.393C2037.69 447.627 2037.51 447.815 2037.27 447.957C2037.05 448.092 2036.79 448.16 2036.51 448.16ZM2048.84 448.298C2047.31 448.298 2046 447.858 2044.91 446.977C2043.83 446.089 2043 444.808 2042.42 443.131C2041.84 441.455 2041.56 439.442 2041.56 437.091C2041.56 434.747 2041.84 432.741 2042.42 431.072C2043 429.396 2043.84 428.114 2044.92 427.226C2046.02 426.331 2047.32 425.884 2048.84 425.884C2050.36 425.884 2051.67 426.331 2052.75 427.226C2053.85 428.114 2054.68 429.396 2055.26 431.072C2055.84 432.741 2056.13 434.747 2056.13 437.091C2056.13 439.442 2055.84 441.455 2055.26 443.131C2054.68 444.808 2053.85 446.089 2052.76 446.977C2051.68 447.858 2050.38 448.298 2048.84 448.298ZM2048.84 446.509C2050.53 446.509 2051.84 445.688 2052.78 444.048C2053.73 442.4 2054.2 440.081 2054.2 437.091C2054.2 435.102 2053.99 433.405 2053.55 431.999C2053.13 430.585 2052.51 429.506 2051.71 428.76C2050.91 428.014 2049.96 427.641 2048.84 427.641C2047.17 427.641 2045.86 428.472 2044.91 430.134C2043.96 431.789 2043.48 434.108 2043.48 437.091C2043.48 439.08 2043.7 440.777 2044.12 442.183C2044.56 443.589 2045.17 444.662 2045.97 445.401C2046.77 446.139 2047.73 446.509 2048.84 446.509ZM2059.94 443.312V441.693L2069.67 426.182H2070.86V428.898H2069.98L2062.17 441.384V441.523H2074.92V443.312H2059.94ZM2070.13 448V442.801V442.055V426.182H2072.03V448H2070.13ZM2088.15 436.196V437.986H2079.07V436.196H2088.15ZM2099.61 448.298C2098.08 448.298 2096.77 447.858 2095.68 446.977C2094.6 446.089 2093.77 444.808 2093.19 443.131C2092.62 441.455 2092.33 439.442 2092.33 437.091C2092.33 434.747 2092.62 432.741 2093.19 431.072C2093.77 429.396 2094.61 428.114 2095.69 427.226C2096.79 426.331 2098.09 425.884 2099.61 425.884C2101.13 425.884 2102.44 426.331 2103.52 427.226C2104.62 428.114 2105.45 429.396 2106.03 431.072C2106.61 432.741 2106.9 434.747 2106.9 437.091C2106.9 439.442 2106.61 441.455 2106.03 443.131C2105.45 444.808 2104.62 446.089 2103.54 446.977C2102.46 447.858 2101.15 448.298 2099.61 448.298ZM2099.61 446.509C2101.3 446.509 2102.61 445.688 2103.56 444.048C2104.5 442.4 2104.97 440.081 2104.97 437.091C2104.97 435.102 2104.76 433.405 2104.32 431.999C2103.9 430.585 2103.28 429.506 2102.48 428.76C2101.69 428.014 2100.73 427.641 2099.61 427.641C2097.95 427.641 2096.64 428.472 2095.68 430.134C2094.73 431.789 2094.26 434.108 2094.26 437.091C2094.26 439.08 2094.47 440.777 2094.9 442.183C2095.33 443.589 2095.94 444.662 2096.74 445.401C2097.54 446.139 2098.5 446.509 2099.61 446.509ZM2111.92 448.16C2111.5 448.16 2111.14 448.011 2110.83 447.712C2110.53 447.407 2110.38 447.045 2110.38 446.626C2110.38 446.2 2110.53 445.837 2110.83 445.539C2111.14 445.241 2111.5 445.092 2111.92 445.092C2112.34 445.092 2112.71 445.241 2113 445.539C2113.3 445.837 2113.45 446.2 2113.45 446.626C2113.45 446.903 2113.38 447.158 2113.24 447.393C2113.1 447.627 2112.92 447.815 2112.68 447.957C2112.46 448.092 2112.2 448.16 2111.92 448.16ZM2124.59 448.298C2123.25 448.298 2122.05 448.057 2120.99 447.574C2119.93 447.084 2119.09 446.406 2118.48 445.539C2117.86 444.673 2117.53 443.675 2117.5 442.545H2119.51C2119.55 443.341 2119.79 444.037 2120.25 444.634C2120.7 445.223 2121.3 445.685 2122.06 446.018C2122.81 446.345 2123.65 446.509 2124.57 446.509C2125.58 446.509 2126.47 446.32 2127.23 445.944C2128.01 445.567 2128.61 445.053 2129.04 444.399C2129.49 443.739 2129.71 442.993 2129.71 442.162C2129.71 441.281 2129.48 440.504 2129.03 439.829C2128.59 439.154 2127.94 438.629 2127.11 438.252C2126.27 437.876 2125.28 437.688 2124.12 437.688H2122.84V435.898H2124.12C2125.07 435.898 2125.9 435.727 2126.63 435.386C2127.36 435.038 2127.93 434.552 2128.35 433.927C2128.77 433.302 2128.98 432.567 2128.98 431.722C2128.98 430.919 2128.8 430.212 2128.44 429.602C2128.08 428.991 2127.56 428.511 2126.9 428.163C2126.25 427.815 2125.49 427.641 2124.61 427.641C2123.77 427.641 2122.99 427.805 2122.29 428.131C2121.59 428.458 2121.02 428.92 2120.59 429.516C2120.16 430.113 2119.93 430.82 2119.9 431.636H2117.98C2118 430.5 2118.32 429.502 2118.91 428.643C2119.52 427.776 2120.32 427.102 2121.31 426.619C2122.31 426.129 2123.42 425.884 2124.63 425.884C2125.92 425.884 2127.03 426.146 2127.97 426.672C2128.91 427.197 2129.63 427.897 2130.14 428.771C2130.66 429.637 2130.92 430.592 2130.92 431.636C2130.92 432.879 2130.58 433.945 2129.91 434.832C2129.23 435.713 2128.32 436.324 2127.18 436.665V436.803C2128.57 437.08 2129.67 437.698 2130.46 438.657C2131.26 439.609 2131.67 440.777 2131.67 442.162C2131.67 443.327 2131.36 444.374 2130.75 445.305C2130.14 446.228 2129.3 446.96 2128.24 447.499C2127.18 448.032 2125.96 448.298 2124.59 448.298ZM2135.85 443.312V441.693L2145.58 426.182H2146.77V428.898H2145.89L2138.08 441.384V441.523H2150.83V443.312H2135.85ZM2146.04 448V442.801V442.055V426.182H2147.93V448H2146.04Z" fill="black"/>
</g>
</g>
<defs>
<linearGradient id="paint0_linear_164_553" x1="467" y1="178.91" x2="895.357" y2="178.91" gradientUnits="userSpaceOnUse">
<stop offset="0.485577" stop-color="#B4E1EC"/>
<stop offset="0.807692" stop-color="#EB8E44"/>
</linearGradient>
<linearGradient id="paint1_linear_164_553" x1="713.007" y1="7.55957" x2="713.007" y2="127.678" gradientUnits="userSpaceOnUse">
<stop offset="0.60563" stop-color="#B4E1EC"/>
<stop offset="1" stop-color="#EB8E44"/>
</linearGradient>
<linearGradient id="paint2_linear_164_553" x1="649.163" y1="7.87109" x2="649.163" y2="127.598" gradientUnits="userSpaceOnUse">
<stop offset="0.60563" stop-color="#B4E1EC"/>
<stop offset="1" stop-color="#EB8E44"/>
</linearGradient>
<linearGradient id="paint3_linear_164_553" x1="1133.18" y1="0" x2="1133.18" y2="357.82" gradientUnits="userSpaceOnUse">
<stop offset="0.701923" stop-color="#EB8E44"/>
<stop offset="1" stop-color="#EB7044"/>
</linearGradient>
<linearGradient id="paint4_linear_164_553" x1="1165.01" y1="7.55957" x2="1165.01" y2="127.678" gradientUnits="userSpaceOnUse">
<stop offset="0.414161" stop-color="#EB8E44"/>
<stop offset="1" stop-color="#E55D5D"/>
</linearGradient>
<linearGradient id="paint5_linear_164_553" x1="1101.16" y1="7.87109" x2="1101.16" y2="127.598" gradientUnits="userSpaceOnUse">
<stop offset="0.414161" stop-color="#EB8E44"/>
<stop offset="1" stop-color="#E55D5D"/>
</linearGradient>
<linearGradient id="paint6_linear_164_553" x1="1798.36" y1="186.91" x2="1370" y2="186.91" gradientUnits="userSpaceOnUse">
<stop offset="0.414161" stop-color="#EB8E44"/>
<stop offset="1" stop-color="#E55D5D"/>
</linearGradient>
<linearGradient id="paint7_linear_164_553" x1="1616.01" y1="15.5596" x2="1616.01" y2="135.678" gradientUnits="userSpaceOnUse">
<stop offset="0.414161" stop-color="#EB8E44"/>
<stop offset="1" stop-color="#E55D5D"/>
</linearGradient>
<linearGradient id="paint8_linear_164_553" x1="1552.16" y1="15.8711" x2="1552.16" y2="135.598" gradientUnits="userSpaceOnUse">
<stop offset="0.414161" stop-color="#EB8E44"/>
<stop offset="1" stop-color="#E55D5D"/>
</linearGradient>
<linearGradient id="paint9_linear_164_553" x1="2298.36" y1="178.91" x2="1870" y2="178.91" gradientUnits="userSpaceOnUse">
<stop offset="0.716346" stop-color="#DE2929"/>
<stop offset="1" stop-color="#EB7044"/>
</linearGradient>
<linearGradient id="paint10_linear_164_553" x1="2144.94" y1="67.6188" x2="2087.07" y2="67.6188" gradientUnits="userSpaceOnUse">
<stop offset="0.716346" stop-color="#DE2929"/>
<stop offset="1" stop-color="#EB7044"/>
</linearGradient>
<linearGradient id="paint11_linear_164_553" x1="2080.7" y1="67.7346" x2="2023.62" y2="67.7346" gradientUnits="userSpaceOnUse">
<stop offset="0.716346" stop-color="#DE2929"/>
<stop offset="1" stop-color="#EB7044"/>
</linearGradient>
</defs>
</svg>
