<svg width="181" height="151" viewBox="0 0 181 151" fill="none" xmlns="http://www.w3.org/2000/svg">
<g id="euthyroid butterfly">
<path id="body" d="M173.639 1.95111H173.583C165.934 -2.28509 154.249 1.1886 145.499 4.69053L145.471 4.71849C145.386 4.74673 145.302 4.77497 145.217 4.80321C144.794 5.22683 102.477 18.7884 92.2503 66.374C91.7157 63.0011 91.0476 60.9734 90.32 60.9734C89.5924 60.9734 88.9243 63.0011 88.3894 66.3745C78.1627 18.7886 35.8463 5.2274 35.4224 4.80378C35.3377 4.77554 35.2533 4.7473 35.1684 4.71905L35.1402 4.6911C26.3905 1.18888 14.7054 -2.28453 7.08438 1.95168H7.00027C6.49194 2.31882 3.61301 3.73089 1.694 7.06337C-0.451088 10.7348 -0.422863 15.1687 1.0166 19.2072C6.43549 32.0852 18.3184 34.4293 26.5886 58.378C31.9189 73.671 33.4752 77.5155 52.4987 77.215C20.0402 95.1765 25.4308 142.311 48.9706 150.078C72.9222 156.96 76.7227 118.393 86.933 90.6861C87.02 90.426 87.0976 90.1976 87.1811 89.9505C87.3699 102.756 88.7019 112.686 90.3203 112.686C91.9387 112.686 93.2706 102.756 93.4595 89.9505C93.5427 90.1976 93.6206 90.4258 93.7073 90.6859C95.3725 95.2045 97.687 101.644 100.058 109.353C102.034 115.99 103.332 122.486 105.816 129.122C111.235 142.904 117.811 154.06 131.67 150.078C155.209 142.311 160.6 95.1762 128.142 77.2147C133.532 77.2994 139.093 77.5254 143.834 75.1249C145.302 74.3341 146.741 73.2892 147.927 71.9615C151.371 68.036 152.358 63.2349 154.08 58.3774C162.35 34.4287 174.204 32.0847 179.623 19.2066C181.063 15.1681 181.091 10.7342 178.946 7.06281C177.027 3.7306 174.148 2.31854 173.639 1.95111Z" fill="url(#paint0_linear_167_563)"/>
<path id="rightantenae" d="M92.0298 52.9774C92.1277 53.5414 92.18 53.8424 92.18 53.8424C92.18 53.8424 92.1771 53.5366 92.1718 52.9633C92.1681 52.3911 92.1379 51.5557 92.2248 50.4952C92.3685 44.9845 94.2423 37.8098 98.7038 30.9833C101.158 27.276 104.425 24.0065 108.413 21.3106C112.695 18.0346 116.778 14.3081 115.797 8.41726C115.2 5.33726 112.96 3.46316 110.384 3.22367C105.627 2.7639 101.667 6.82134 103.595 11.12C104.23 12.6464 105.306 13.6219 106.244 14.2381C108.279 15.3875 109.666 14.8744 109.623 14.9554C109.674 14.8947 108.213 15.1308 106.558 13.7874C105.764 13.1389 104.945 12.1112 104.595 10.7689C103.599 7.22802 106.699 4.61823 110.091 5.27428C111.835 5.57025 113.094 6.97808 113.386 8.84258C114.061 13.4064 110.319 16.4635 106.727 19.0501C102.734 21.8884 99.0993 25.6787 96.6451 29.6658C94.1548 33.6831 92.7938 37.9196 92.0925 41.5741C91.3628 45.2446 91.5057 48.3757 91.6787 50.5094C91.7662 51.5823 91.9324 52.412 92.0298 52.9774Z" fill="url(#paint1_linear_167_563)"/>
<path id="leftantenae" d="M72.2238 21.3091C76.195 24.0329 79.4318 27.3205 81.853 31.0337C86.1426 37.6978 88.0621 44.8186 88.1745 50.4881C88.2538 51.5409 88.2188 52.3698 88.2117 52.9369C88.2027 53.5057 88.1982 53.8087 88.1982 53.8087C88.1982 53.8087 88.2524 53.5108 88.3537 52.9516C88.4539 52.3913 88.6258 51.5686 88.7206 50.5033C89.3992 42.8084 87.4553 35.5176 83.9145 29.7194C81.4928 25.7263 77.8891 21.9177 73.9144 19.0517C70.3463 16.4453 66.6381 13.393 67.3485 8.86111C68.031 4.79971 72.9071 4.37835 75.035 6.79242C76.7688 8.66483 76.094 11.849 73.9444 13.589C72.3573 14.8658 70.9909 14.6317 71.0364 14.6927C70.9985 14.6116 72.2912 15.1228 74.2571 14.0406C77.4843 11.9598 78.1468 8.15055 76.2563 5.77573C73.186 1.89876 66.1283 2.48618 64.9381 8.43127C63.9324 14.2391 68.0262 18.0526 72.2238 21.3091Z" fill="url(#paint2_linear_167_563)"/>
</g>
<defs>
<linearGradient id="paint0_linear_167_563" x1="90.32" y1="0" x2="90.32" y2="150.894" gradientUnits="userSpaceOnUse">
<stop offset="0.701923" stop-color="#EB8E44"/>
<stop offset="1" stop-color="#EB7044"/>
</linearGradient>
<linearGradient id="paint1_linear_167_563" x1="103.742" y1="3.18799" x2="103.742" y2="53.8424" gradientUnits="userSpaceOnUse">
<stop offset="0.414161" stop-color="#EB8E44"/>
<stop offset="1" stop-color="#E55D5D"/>
</linearGradient>
<linearGradient id="paint2_linear_167_563" x1="76.8194" y1="3.31934" x2="76.8194" y2="53.8087" gradientUnits="userSpaceOnUse">
<stop offset="0.414161" stop-color="#EB8E44"/>
<stop offset="1" stop-color="#E55D5D"/>
</linearGradient>
</defs>
</svg>
