<svg width="449" height="375" viewBox="0 0 449 375" fill="none" xmlns="http://www.w3.org/2000/svg">
<g id="header-thyroid-buttefly">
<g id="hyper butterfly">
<path id="body" d="M431.411 4.84783H431.271C412.267 -5.67713 383.236 2.95334 361.496 11.654L361.426 11.7234C361.216 11.7936 361.006 11.8638 360.795 11.9339C359.743 12.9864 254.606 46.6803 229.198 164.908C227.87 156.528 226.21 151.49 224.402 151.49C222.594 151.49 220.934 156.528 219.606 164.909C194.197 46.681 89.0611 12.9878 88.0078 11.9353C87.7974 11.8652 87.5877 11.795 87.3767 11.7248L87.3065 11.6554C65.5677 2.95404 36.5358 -5.67573 17.6013 4.84924H17.3923C16.1294 5.7614 8.9766 9.26972 4.20878 17.5494C-1.12074 26.671 -1.05061 37.6871 2.52578 47.7209C15.9891 79.7168 45.5126 85.5406 66.06 145.042C79.3031 183.038 83.1699 192.589 130.434 191.843C49.7902 236.469 63.1834 353.576 121.669 372.872C181.177 389.971 190.619 294.15 215.987 225.312C216.203 224.666 216.396 224.098 216.604 223.484C217.073 255.301 220.382 279.972 224.403 279.972C228.424 279.972 231.733 255.3 232.202 223.484C232.409 224.098 232.603 224.665 232.818 225.311C236.955 236.538 242.706 252.536 248.596 271.691C253.506 288.18 256.731 304.319 262.902 320.808C276.366 355.049 292.705 382.765 327.136 372.871C385.621 353.576 399.015 236.468 318.371 191.842C331.764 192.053 345.579 192.614 357.36 186.65C361.006 184.685 364.583 182.089 367.529 178.79C376.084 169.037 378.537 157.109 382.815 145.04C403.361 85.5392 432.814 79.7154 446.279 47.7195C449.855 37.6857 449.925 26.6696 444.596 17.548C439.827 9.26902 432.674 5.7607 431.411 4.84783Z" fill="url(#paint0_linear_171_579)"/>
<path id="rightantenae" d="M228.652 131.623C228.895 133.025 229.025 133.773 229.025 133.773C229.025 133.773 229.018 133.013 229.005 131.588C228.995 130.167 228.92 128.091 229.136 125.456C229.493 111.765 234.149 93.939 245.234 76.9784C251.33 67.7677 259.448 59.6445 269.357 52.9464C279.994 44.8071 290.14 35.5487 287.702 20.9127C286.218 13.2603 280.653 8.60407 274.254 8.00906C262.434 6.86675 252.597 16.9476 257.386 27.6276C258.963 31.4201 261.637 33.8436 263.968 35.3747C269.022 38.2304 272.47 36.9555 272.362 37.1569C272.489 37.006 268.86 37.5926 264.748 34.2548C262.774 32.6438 260.741 30.0904 259.87 26.7554C257.397 17.958 265.097 11.4739 273.524 13.1038C277.857 13.8392 280.986 17.337 281.711 21.9694C283.39 33.3083 274.092 40.9038 265.168 47.3303C255.248 54.382 246.216 63.7991 240.119 73.7052C233.932 83.6863 230.55 94.212 228.808 103.292C226.995 112.411 227.35 120.19 227.78 125.491C227.997 128.157 228.41 130.219 228.652 131.623Z" fill="url(#paint1_linear_171_579)"/>
<path id="leftantenae" d="M179.441 52.943C189.308 59.7105 197.35 67.8786 203.365 77.1041C214.023 93.6612 218.792 111.353 219.071 125.439C219.268 128.055 219.181 130.114 219.164 131.523C219.141 132.936 219.13 133.689 219.13 133.689C219.13 133.689 219.265 132.949 219.517 131.56C219.765 130.167 220.193 128.123 220.428 125.477C222.114 106.359 217.284 88.2444 208.487 73.8385C202.471 63.9177 193.517 54.4551 183.642 47.3346C174.777 40.8589 165.564 33.2753 167.329 22.0157C169.024 11.9251 181.139 10.8782 186.426 16.876C190.734 21.5281 189.057 29.4393 183.716 33.7623C179.773 36.9345 176.378 36.3528 176.491 36.5044C176.397 36.303 179.609 37.573 184.493 34.8842C192.511 29.7144 194.157 20.2503 189.46 14.35C181.832 4.7176 164.297 6.17707 161.34 20.9478C158.841 35.3775 169.012 44.8521 179.441 52.943Z" fill="url(#paint2_linear_171_579)"/>
</g>
<path id="thyroid" d="M305.026 107.644C303.623 105.178 301.945 102.879 300.024 100.791C299.981 100.669 299.947 100.543 299.899 100.422L299.729 100.488C296.254 96.926 292.536 95.1829 288.613 95.3143C277.902 95.6783 270.434 110.095 269.617 111.739C268.357 114.378 267.297 117.108 266.445 119.906C264.885 124.67 263.654 128.433 259.053 132.027C252.99 136.763 248.321 139.438 241.022 140.018C238.375 140.292 235.745 140.713 233.144 141.279C230.397 141.913 227.602 142.319 224.788 142.494C222.178 142.543 218.645 141.858 215.229 141.213C212.694 140.684 210.135 140.286 207.56 140.018C200.261 139.438 195.592 136.762 189.528 132.026C184.929 128.433 183.697 124.67 182.138 119.906C181.285 117.108 180.225 114.378 178.964 111.739C178.15 110.096 170.694 95.6821 159.973 95.314C159.831 95.3091 159.69 95.3066 159.549 95.3066C155.782 95.3066 152.204 97.0503 148.851 100.487L148.683 100.421C148.635 100.544 148.601 100.67 148.556 100.794C146.636 102.881 144.958 105.178 143.556 107.644C129.963 130.897 131.486 143.783 133.097 157.425C133.421 160.166 133.756 163 133.975 165.964C134.667 175.32 136.986 183.403 139.229 191.219C141.377 198.707 143.598 206.451 144.547 215.636C147.264 241.933 156.82 255.853 173.761 258.193C175.046 258.373 176.343 258.464 177.64 258.465C195.641 258.464 203.763 240.348 204.125 239.518C207.106 232.63 215.647 229.969 222.648 229.775C232.475 229.496 241.438 233.544 244.494 239.604C245.308 241.421 253.453 258.466 270.93 258.466C272.232 258.464 273.531 258.373 274.82 258.193C291.762 255.853 301.317 241.932 304.033 215.636C304.982 206.451 307.203 198.709 309.352 191.22C311.594 183.404 313.914 175.321 314.606 165.964C314.825 162.999 315.159 160.164 315.483 157.423C317.095 143.782 318.618 130.897 305.026 107.644ZM299.468 211.895C299.323 212.952 299.188 214.024 299.074 215.123C298.768 218.088 298.378 220.872 297.904 223.476L297.808 223.4C295.304 226.576 291.515 227.319 288.971 227.422C289.799 225.868 290.219 224.129 290.192 222.368C290.165 220.607 289.692 218.882 288.817 217.354C292.709 215.936 295.904 213.071 297.74 209.353C297.796 209.418 297.863 209.475 297.918 209.541C298.521 210.265 299.041 211.055 299.468 211.895ZM262.429 242.624C261.673 239.624 260.225 236.843 258.201 234.505C256.178 232.166 253.635 230.335 250.778 229.158C250.795 229.075 250.803 228.99 250.819 228.906C250.926 228.883 251.032 228.854 251.139 228.832C253.297 228.347 255.529 228.293 257.708 228.674C259.887 229.055 261.969 229.864 263.835 231.054C265.063 231.843 266.117 232.875 266.934 234.086C267.751 235.298 268.313 236.663 268.586 238.098C268.834 239.523 268.784 240.984 268.439 242.388C266.457 241.864 264.364 241.947 262.429 242.624ZM230.27 225.385C234.726 223.779 237.727 220.468 237.727 216.546C237.727 216.488 237.721 216.431 237.72 216.373C240.161 216.663 242.4 217.874 243.983 219.758C246.671 223.025 246.805 227.798 244.516 231.751C240.673 228.401 235.514 226.33 230.27 225.385ZM186.153 242.624C184.218 241.947 182.125 241.864 180.142 242.388C179.798 240.983 179.748 239.522 179.996 238.098C180.269 236.662 180.831 235.297 181.648 234.086C182.464 232.875 183.519 231.843 184.747 231.054C186.613 229.864 188.695 229.055 190.874 228.673C193.052 228.292 195.285 228.346 197.443 228.832C197.55 228.854 197.656 228.883 197.762 228.906C197.778 228.99 197.786 229.074 197.804 229.158C194.946 230.335 192.404 232.166 190.38 234.505C188.357 236.843 186.909 239.624 186.153 242.624ZM149.507 215.123C149.393 214.024 149.258 212.953 149.113 211.896C149.54 211.055 150.06 210.266 150.663 209.542L148.75 207.941L150.663 209.541C150.716 209.477 150.78 209.423 150.835 209.36C151.455 210.643 152.248 211.834 153.191 212.901C154.978 214.909 157.236 216.443 159.76 217.362C158.887 218.889 158.416 220.613 158.389 222.373C158.363 224.132 158.783 225.869 159.61 227.422C157.066 227.319 153.278 226.576 150.774 223.4L150.678 223.476C150.203 220.87 149.813 218.086 149.507 215.123ZM196.716 154.194C198.702 156.521 199.525 158.756 198.915 160.173C198.769 160.505 198.555 160.802 198.286 161.045L198.011 161.303C196.999 161.076 195.965 160.961 194.928 160.957C194.217 160.961 193.507 161.018 192.803 161.126C192.329 158.238 190.857 155.608 188.643 153.697C186.429 151.786 183.615 150.714 180.693 150.669C179.38 150.67 178.077 150.888 176.835 151.314C176.402 148.66 175.18 146.198 173.329 144.25C173.372 144.166 173.42 144.086 173.461 144C177.766 144.013 182.02 144.943 185.939 146.729C190.038 148.389 193.718 150.939 196.716 154.194ZM206.113 152.848C206.162 155.748 206.924 158.59 208.33 161.125C209.736 163.66 211.743 165.809 214.175 167.383C213.894 169.041 214.025 170.743 214.555 172.339C215.086 173.934 216.001 175.375 217.218 176.533C212.577 178.531 209.408 182.474 209.408 187.006C209.424 189.084 210.082 191.107 211.292 192.796C209.154 192.494 207.208 191.4 205.838 189.73C204.467 188.06 203.771 185.936 203.889 183.777C203.93 183.241 204.023 182.71 204.167 182.192C205.445 181.088 206.473 179.725 207.183 178.191C207.892 176.658 208.267 174.991 208.281 173.301C208.255 171.323 207.743 169.382 206.79 167.65C205.838 165.917 204.474 164.446 202.819 163.366C203.082 162.982 203.308 162.574 203.494 162.148C204.457 159.909 204.275 157.358 203.014 154.724C203.899 153.882 204.957 153.242 206.113 152.848ZM242.468 152.848C243.622 153.241 244.677 153.879 245.561 154.719C244.336 157.301 244.106 159.866 245.087 162.148C245.273 162.574 245.499 162.982 245.762 163.366C244.108 164.446 242.744 165.917 241.791 167.65C240.839 169.382 240.327 171.323 240.301 173.301C240.315 174.991 240.689 176.658 241.399 178.191C242.108 179.724 243.136 181.088 244.414 182.192C244.788 183.535 244.814 184.952 244.491 186.309C244.167 187.665 243.504 188.917 242.564 189.947C241.105 191.582 239.089 192.615 236.911 192.842C238.141 191.144 238.812 189.104 238.829 187.006C238.829 182.619 235.855 178.79 231.455 176.737C232.766 175.556 233.753 174.058 234.32 172.386C234.887 170.713 235.015 168.923 234.692 167.187C237.044 165.6 238.98 163.468 240.334 160.972C241.687 158.475 242.42 155.689 242.468 152.848ZM262.642 146.729C266.56 144.942 270.815 144.012 275.12 144C275.161 144.086 275.209 144.166 275.252 144.25C273.401 146.198 272.179 148.66 271.746 151.314C270.504 150.888 269.201 150.67 267.888 150.669C264.966 150.713 262.152 151.785 259.938 153.696C257.724 155.608 256.252 158.237 255.777 161.126C255.074 161.017 254.364 160.961 253.653 160.957C252.616 160.96 251.583 161.076 250.571 161.302L250.296 161.045C250.027 160.801 249.812 160.504 249.666 160.172C248.322 157.049 253.586 150.637 262.642 146.729ZM308.053 168.055C308.071 168.383 308.103 168.707 308.103 169.039C308.106 170.843 307.814 172.636 307.239 174.345C306.901 172.772 306.234 171.289 305.282 169.993C306.322 169.531 307.262 168.873 308.053 168.055ZM293.053 187.165L293.131 187.424C293.575 188.908 293.648 190.479 293.346 191.999C293.043 193.518 292.373 194.94 291.394 196.141C290.416 197.341 289.158 198.283 287.732 198.884C286.306 199.485 284.754 199.726 283.213 199.588C281.672 199.449 280.188 198.935 278.892 198.089C277.595 197.243 276.526 196.092 275.776 194.736C275.027 193.381 274.62 191.862 274.593 190.312C274.565 188.763 274.917 187.231 275.618 185.849L275.648 185.791C277.314 187.015 279.323 187.684 281.39 187.702C282.956 187.661 284.494 187.272 285.891 186.562C287.288 185.853 288.51 184.841 289.469 183.6C290.233 185.155 291.495 186.41 293.053 187.165ZM280.364 243.113L280.301 243.263C278.897 242.397 277.28 241.938 275.63 241.937C274.933 241.94 274.239 242.023 273.562 242.186C273.81 240.536 273.786 238.856 273.493 237.214C273.217 235.685 272.708 234.209 271.982 232.835C273.591 233.539 275.33 233.894 277.085 233.877C277.379 233.877 277.681 233.868 277.991 233.849C279.038 233.84 280.08 233.706 281.095 233.45L281.129 233.598C281.485 233.517 281.848 233.476 282.213 233.476C283.521 233.501 284.768 234.039 285.684 234.975C286.6 235.91 287.114 237.168 287.114 238.478C287.114 239.789 286.6 241.047 285.684 241.982C284.768 242.918 283.521 243.456 282.213 243.481C281.578 243.482 280.95 243.357 280.364 243.113ZM250.96 223.795C250.728 222.115 250.207 220.487 249.418 218.986C249.859 217.874 250.587 216.899 251.527 216.16C252.466 215.421 253.585 214.945 254.768 214.779C258.372 214.158 261.736 216.147 262.261 219.21C262.388 220.127 262.278 221.062 261.942 221.924C261.606 222.787 261.055 223.549 260.341 224.138C257.271 223.38 254.077 223.263 250.96 223.795ZM228.34 205.634C228.34 209.295 226.367 212.507 224.119 212.507C221.87 212.507 219.897 209.295 219.897 205.634C219.897 202.304 221.529 199.355 223.517 198.846C223.718 198.853 223.916 198.871 224.118 198.871C224.321 198.871 224.519 198.853 224.72 198.846C226.707 199.355 228.34 202.304 228.34 205.634ZM215.277 208.988C214.951 209.187 214.641 209.397 214.345 209.616C211.974 206.323 207.973 203.379 203.064 201.462C201.131 200.705 199.125 200.153 197.078 199.814C200.459 196.24 203.353 195.31 204.29 195.095C206.439 196.721 209.014 197.684 211.702 197.866C212.024 197.888 212.346 197.899 212.667 197.899C214.057 197.894 215.438 197.68 216.765 197.266C216.958 197.357 217.152 197.446 217.351 197.53C215.715 199.91 214.862 202.744 214.912 205.634C214.911 206.762 215.034 207.887 215.277 208.988ZM197.622 223.795C194.504 223.263 191.31 223.379 188.239 224.137C187.525 223.548 186.974 222.786 186.639 221.923C186.303 221.061 186.193 220.126 186.321 219.209C186.458 218.481 186.749 217.79 187.174 217.183C187.6 216.576 188.15 216.067 188.789 215.691C190.295 214.78 192.084 214.455 193.814 214.778C194.997 214.944 196.115 215.421 197.055 216.16C197.995 216.899 198.722 217.873 199.164 218.985C198.375 220.486 197.853 222.114 197.622 223.795ZM175.019 242.185C174.342 242.023 173.648 241.94 172.952 241.938C171.302 241.938 169.685 242.397 168.28 243.264L168.218 243.113C167.632 243.357 167.003 243.482 166.369 243.481C165.06 243.456 163.814 242.918 162.898 241.982C161.982 241.047 161.468 239.789 161.468 238.478C161.468 237.168 161.982 235.91 162.898 234.974C163.814 234.039 165.06 233.501 166.369 233.476C166.733 233.476 167.097 233.517 167.453 233.598L167.487 233.45C168.502 233.705 169.544 233.84 170.591 233.849C170.9 233.868 171.202 233.877 171.497 233.877C173.252 233.894 174.991 233.539 176.6 232.835C175.875 234.208 175.365 235.685 175.09 237.213C174.796 238.856 174.772 240.535 175.019 242.185ZM155.451 187.424L155.529 187.164C157.087 186.41 158.349 185.155 159.113 183.6C160.072 184.841 161.294 185.853 162.691 186.562C164.088 187.272 165.626 187.661 167.192 187.702C169.259 187.684 171.268 187.015 172.934 185.791L172.964 185.849C173.664 187.23 174.016 188.762 173.988 190.311C173.96 191.86 173.554 193.379 172.804 194.734C172.055 196.089 170.985 197.24 169.689 198.085C168.393 198.931 166.909 199.445 165.368 199.584C163.828 199.722 162.277 199.481 160.851 198.88C159.425 198.279 158.168 197.338 157.189 196.138C156.21 194.938 155.54 193.517 155.237 191.997C154.934 190.478 155.008 188.908 155.451 187.424ZM148.258 147.103C148.258 141.227 151.804 136.262 156.001 136.262C156.525 136.263 157.046 136.339 157.548 136.487C157.328 137.375 157.216 138.288 157.214 139.203C157.182 141.982 158.234 144.664 160.146 146.677C159.507 146.404 158.837 146.214 158.15 146.112C155.271 145.683 152.37 146.862 150.096 149.302C149.538 148.996 148.946 148.758 148.332 148.592C148.283 148.101 148.258 147.603 148.258 147.103ZM158.765 131.145C158.765 128.01 161.758 125.46 165.437 125.46C166.519 125.438 167.591 125.668 168.57 126.13C169.549 126.592 170.408 127.274 171.08 128.124C170.399 128.677 169.788 129.31 169.26 130.011C168.207 129.487 167.047 129.214 165.871 129.212C164.73 129.229 163.605 129.487 162.571 129.97C161.537 130.454 160.618 131.151 159.873 132.017C159.524 131.88 159.168 131.761 158.807 131.661C158.784 131.49 158.77 131.318 158.765 131.145ZM180.693 155.662C182.677 155.779 184.542 156.651 185.905 158.099C187.269 159.548 188.028 161.463 188.028 163.454C188.028 165.444 187.269 167.359 185.905 168.808C184.542 170.256 182.677 171.128 180.693 171.245C180.061 171.243 179.433 171.154 178.825 170.98C178.55 167.86 177.399 164.882 175.503 162.39C176.364 160.604 176.895 158.676 177.07 156.7C178.16 156.028 179.413 155.669 180.693 155.662ZM192.72 166.218C193.443 166.042 194.184 165.952 194.928 165.95C199.542 165.95 203.296 169.247 203.296 173.301C203.296 177.354 199.542 180.651 194.928 180.651C190.822 180.651 187.405 178.037 186.701 174.606C188.232 173.704 189.557 172.492 190.594 171.048C191.63 169.603 192.354 167.959 192.72 166.218ZM169.542 139.204C169.542 141.913 167.861 144.203 165.871 144.203C163.88 144.203 162.2 141.913 162.2 139.204C162.2 136.494 163.881 134.205 165.871 134.205C167.86 134.205 169.542 136.494 169.542 139.204ZM167.192 163.01C170.852 163.01 173.944 167.52 173.944 172.859C173.944 178.198 170.852 182.709 167.192 182.709C163.531 182.709 160.439 178.199 160.439 172.859C160.439 167.52 163.531 163.01 167.192 163.01ZM178.964 176.098C178.833 176.202 178.702 176.306 178.574 176.419C178.599 176.293 178.629 176.17 178.65 176.044C178.755 176.062 178.859 176.083 178.964 176.098ZM178.891 188.587C178.851 188.219 178.79 187.855 178.723 187.494C178.748 186.991 178.804 186.49 178.888 185.994C179.203 183.965 180.097 182.071 181.463 180.539C181.968 179.999 182.585 179.577 183.27 179.302C184.719 181.65 186.872 183.48 189.421 184.531C187.922 186.544 186.797 188.812 186.101 191.224C183.847 190.288 181.393 189.944 178.969 190.225C178.974 189.678 178.948 189.131 178.891 188.587ZM192.912 196.971C192.243 195.904 191.439 194.929 190.519 194.07C190.597 193.679 190.689 193.288 190.796 192.901C191.525 190.106 193.046 187.581 195.175 185.632C196.44 185.615 197.698 185.429 198.914 185.081C199.029 187.199 199.648 189.258 200.72 191.087C197.731 192.473 195.07 194.478 192.912 196.971ZM171.499 159.066C170.165 158.384 168.69 158.025 167.192 158.018C166.924 158.018 166.662 158.046 166.398 158.068C166.42 155.633 165.845 153.229 164.724 151.067C164.922 150.41 165.189 149.775 165.522 149.175C165.638 149.18 165.753 149.195 165.871 149.195C167.33 149.191 168.758 148.773 169.99 147.989C171.519 149.941 172.297 152.378 172.184 154.856C172.19 156.288 171.959 157.71 171.499 159.066ZM152.334 165.698C151.099 163.545 150.663 161.024 151.103 158.581C151.341 156.844 151.965 155.183 152.931 153.721C154.223 151.822 155.891 150.823 157.416 151.05C160.165 151.46 161.926 155.586 161.271 160.065C158.946 161.871 157.23 164.349 156.355 167.163C155.18 166.304 153.786 165.796 152.334 165.698ZM155.465 201.43C157.849 203.356 160.787 204.467 163.848 204.599C164.107 207.205 164.897 209.731 166.17 212.019C165.295 212.336 164.458 212.749 163.673 213.25C161.066 212.847 158.679 211.552 156.919 209.585C155.993 208.565 155.287 207.366 154.845 206.061C154.403 204.756 154.233 203.374 154.348 202.001C154.391 201.542 154.467 201.086 154.575 200.638C154.862 200.91 155.153 201.179 155.465 201.43ZM163.374 222.535C163.374 219.049 166.649 216.213 170.673 216.213C174.916 216.213 178.565 218.734 178.642 221.718C178.652 222.701 178.465 223.676 178.09 224.584C177.716 225.493 177.162 226.316 176.461 227.005C175.709 227.697 174.818 228.22 173.848 228.54C172.878 228.86 171.851 228.97 170.836 228.862C170.781 228.859 170.728 228.857 170.674 228.857C166.649 228.857 163.374 226.021 163.374 222.535ZM182.994 225.66C183.091 225.807 183.191 225.952 183.296 226.095C183.103 226.204 182.911 226.311 182.723 226.426C182.825 226.175 182.908 225.917 182.994 225.66ZM181.639 205.406C180.585 208.115 181.146 211.235 183.158 214.233C182.646 214.937 182.23 215.706 181.92 216.519C179.877 213.593 176.18 211.575 171.833 211.267C170.234 209.744 169.122 207.048 168.8 203.977C170.864 203.335 172.758 202.239 174.344 200.769C175.93 199.298 177.167 197.491 177.965 195.48C180.019 194.903 182.206 195.028 184.181 195.835C186.156 196.642 187.807 198.085 188.872 199.936C185.381 200.747 182.73 202.604 181.639 205.406ZM233.843 187.005C233.843 190.491 229.946 193.469 225.127 193.839C224.458 193.745 223.779 193.745 223.11 193.839C218.291 193.469 214.393 190.491 214.393 187.005C214.393 183.28 218.847 180.132 224.118 180.132C229.39 180.132 233.843 183.28 233.843 187.005ZM230.885 197.53C231.129 197.428 231.364 197.316 231.599 197.204C232.992 197.661 234.449 197.896 235.915 197.9C236.236 197.9 236.558 197.888 236.88 197.866C239.572 197.689 242.154 196.727 244.308 195.099C245.261 195.32 248.141 196.259 251.503 199.814C249.456 200.153 247.45 200.705 245.517 201.462C240.524 203.412 236.469 206.424 234.114 209.786C233.744 209.498 233.359 209.232 232.959 208.988C233.202 207.887 233.325 206.762 233.324 205.634C233.375 202.744 232.522 199.911 230.885 197.53ZM253.653 165.95C254.397 165.952 255.138 166.042 255.861 166.218C256.227 167.958 256.951 169.603 257.987 171.048C259.024 172.492 260.349 173.704 261.88 174.606C261.176 178.037 257.759 180.651 253.653 180.651C249.04 180.651 245.286 177.353 245.286 173.301C245.286 169.248 249.04 165.95 253.653 165.95ZM271.512 156.7C271.687 158.676 272.218 160.604 273.079 162.39C271.183 164.881 270.031 167.86 269.756 170.981C269.148 171.154 268.52 171.243 267.888 171.245C265.904 171.128 264.04 170.256 262.676 168.808C261.312 167.359 260.553 165.444 260.553 163.454C260.553 161.463 261.312 159.548 262.676 158.099C264.04 156.651 265.904 155.779 267.888 155.662C269.168 155.669 270.422 156.028 271.512 156.7ZM276.398 154.856C276.285 152.378 277.064 149.942 278.592 147.99C279.824 148.773 281.252 149.191 282.711 149.195C282.829 149.195 282.943 149.18 283.06 149.175C283.399 149.789 283.67 150.439 283.869 151.112C283.815 151.213 283.753 151.305 283.702 151.408C282.7 153.485 282.184 155.763 282.195 158.069C281.928 158.046 281.662 158.018 281.391 158.018C279.892 158.025 278.417 158.384 277.083 159.067C276.623 157.711 276.392 156.288 276.398 154.856ZM283.144 125.46C286.823 125.46 289.816 128.01 289.816 131.145C289.811 131.317 289.797 131.489 289.774 131.66C289.413 131.76 289.058 131.879 288.709 132.016C287.964 131.15 287.044 130.453 286.01 129.969C284.976 129.486 283.851 129.228 282.71 129.212C281.535 129.213 280.375 129.487 279.322 130.01C278.794 129.31 278.182 128.676 277.501 128.124C278.173 127.274 279.032 126.592 280.011 126.13C280.99 125.668 282.062 125.439 283.144 125.46ZM300.324 147.103C300.324 147.603 300.299 148.101 300.25 148.593C299.636 148.758 299.043 148.996 298.485 149.302C296.211 146.864 293.311 145.686 290.432 146.112C289.738 146.216 289.061 146.413 288.418 146.696C290.342 144.681 291.401 141.991 291.368 139.204C291.366 138.288 291.254 137.376 291.034 136.487C291.536 136.339 292.057 136.264 292.581 136.263C296.778 136.262 300.324 141.227 300.324 147.103ZM281.39 182.709C277.729 182.709 274.637 178.199 274.637 172.859C274.637 167.52 277.729 163.01 281.39 163.01C285.051 163.01 288.143 167.52 288.143 172.859C288.143 178.198 285.051 182.709 281.39 182.709ZM277.909 228.857C277.855 228.857 277.801 228.859 277.747 228.862C276.731 228.969 275.704 228.859 274.735 228.539C273.765 228.219 272.874 227.696 272.121 227.005C271.421 226.316 270.867 225.493 270.492 224.584C270.118 223.676 269.93 222.701 269.941 221.718C270.017 218.734 273.666 216.213 277.909 216.213C281.934 216.213 285.209 219.049 285.209 222.535C285.209 226.021 281.934 228.857 277.909 228.857ZM276.749 211.267C272.401 211.575 268.702 213.594 266.659 216.522C266.347 215.711 265.93 214.944 265.418 214.241C267.435 211.242 267.998 208.117 266.942 205.405C265.852 202.604 263.201 200.747 259.71 199.937C260.776 198.083 262.429 196.638 264.408 195.832C266.386 195.026 268.577 194.903 270.632 195.485C271.431 197.492 272.666 199.296 274.249 200.764C275.832 202.232 277.723 203.327 279.783 203.97C279.462 207.044 278.35 209.743 276.749 211.267ZM269.931 176.044C269.952 176.171 269.982 176.293 270.007 176.418C269.879 176.307 269.749 176.202 269.618 176.099C269.723 176.083 269.826 176.062 269.931 176.044ZM265.312 179.301C265.997 179.577 266.614 179.999 267.119 180.54C268.484 182.071 269.379 183.965 269.694 185.994C269.778 186.49 269.833 186.99 269.858 187.493C269.791 187.855 269.73 188.219 269.69 188.588C269.633 189.132 269.607 189.679 269.612 190.226C267.189 189.945 264.734 190.289 262.481 191.224C261.785 188.812 260.66 186.545 259.161 184.532C261.71 183.481 263.863 181.65 265.312 179.301ZM279.04 139.204C279.04 136.494 280.721 134.205 282.71 134.205C284.7 134.205 286.382 136.494 286.382 139.204C286.382 141.913 284.701 144.203 282.71 144.203C280.72 144.203 279.04 141.913 279.04 139.204ZM253.407 185.632C255.536 187.582 257.057 190.106 257.786 192.901C257.893 193.288 257.985 193.679 258.063 194.07C257.143 194.929 256.339 195.905 255.67 196.972C253.514 194.482 250.857 192.478 247.872 191.092C248.944 189.262 249.56 187.2 249.668 185.081C250.885 185.43 252.142 185.615 253.407 185.632ZM247.329 206.114C254.55 203.296 261.189 204.372 262.298 207.219C262.693 208.234 262.413 209.564 261.574 210.98C258.952 209.672 255.953 209.335 253.107 210.028C250.262 210.722 247.752 212.4 246.024 214.768C244.037 213.097 241.646 211.981 239.091 211.534C241.38 209.112 244.2 207.256 247.329 206.114ZM265.588 225.66C265.674 225.917 265.757 226.175 265.859 226.426C265.671 226.312 265.479 226.204 265.286 226.096C265.391 225.952 265.491 225.807 265.588 225.66ZM284.907 213.249C284.123 212.748 283.286 212.335 282.412 212.019C283.685 209.731 284.475 207.205 284.734 204.599C287.795 204.466 290.733 203.356 293.117 201.43C293.429 201.179 293.721 200.91 294.008 200.638C294.115 201.087 294.191 201.542 294.235 202.002C294.708 207.455 290.584 212.326 284.907 213.249ZM292.227 167.163C291.352 164.349 289.636 161.872 287.311 160.065C286.95 157.889 287.245 155.654 288.158 153.646C288.592 152.779 289.56 151.289 291.166 151.05C292.675 150.822 294.357 151.821 295.651 153.72L297.71 152.313L295.651 153.721C296.617 155.183 297.241 156.844 297.479 158.581C297.919 161.025 297.483 163.545 296.247 165.697C294.796 165.796 293.402 166.304 292.227 167.163ZM302.229 165.66C302.078 165.654 301.928 165.635 301.78 165.602C302.601 163.103 302.817 160.445 302.41 157.846C302.191 156.358 301.781 154.905 301.19 153.522C301.519 153.383 301.872 153.311 302.229 153.31C304.458 153.31 306.34 156.138 306.34 159.485C306.34 162.832 304.458 165.66 302.229 165.66ZM294.786 131.523C294.791 131.397 294.802 131.271 294.802 131.145C294.798 129.938 294.572 128.743 294.135 127.619L294.833 127.099C295.684 126.499 296.653 126.089 297.675 125.896C298.697 125.704 299.749 125.732 300.759 125.98C304.431 126.831 306.823 130.101 306.092 133.269C305.86 134.169 305.409 134.997 304.781 135.681C304.152 136.364 303.365 136.882 302.489 137.188C300.769 134.356 298 132.319 294.786 131.523ZM291.858 123.093L291.287 123.518C290.742 123.031 290.153 122.596 289.526 122.22C289.526 122.19 289.519 122.162 289.519 122.132C289.519 119.183 291.402 116.692 293.63 116.692C295.53 116.692 297.174 118.505 297.619 120.866C295.535 121.08 293.546 121.849 291.858 123.093ZM285.808 116.834C285.45 116.311 285.044 115.823 284.596 115.376C285.117 115.663 285.66 115.905 286.221 116.102C286.073 116.339 285.938 116.583 285.808 116.834ZM272.844 126.166C272.592 126.142 272.338 126.126 272.083 126.126C272.055 126.126 272.028 126.131 271.999 126.131C271.558 125.348 271.317 124.468 271.297 123.569C271.262 122.012 271.832 120.503 272.887 119.36C273.873 118.215 275.27 117.507 276.775 117.392C278.28 117.277 279.769 117.763 280.916 118.745C281.452 119.239 281.878 119.84 282.168 120.509C280.274 120.634 278.439 121.213 276.816 122.198C275.194 123.182 273.831 124.543 272.844 126.166ZM267.07 138.727C267.07 134.603 269.366 131.118 272.083 131.118C272.823 131.181 273.536 131.427 274.158 131.835C274.78 132.242 275.291 132.797 275.645 133.451C274.63 135.13 274.084 137.051 274.063 139.014C271.729 139.078 269.41 139.398 267.146 139.969C267.098 139.557 267.073 139.142 267.07 138.727ZM229.88 169.039C229.88 170.114 229.562 171.166 228.965 172.061C228.368 172.955 227.519 173.652 226.527 174.064C225.534 174.476 224.442 174.583 223.388 174.373C222.334 174.163 221.367 173.645 220.607 172.884C219.847 172.124 219.33 171.154 219.121 170.099C218.911 169.044 219.019 167.95 219.43 166.956C219.841 165.962 220.537 165.112 221.431 164.515C222.324 163.917 223.374 163.598 224.449 163.598C225.889 163.6 227.27 164.174 228.288 165.194C229.306 166.213 229.879 167.596 229.88 169.039ZM174.519 139.014C174.498 137.051 173.952 135.13 172.937 133.451C173.291 132.797 173.802 132.242 174.424 131.835C175.045 131.427 175.758 131.181 176.499 131.118C179.216 131.118 181.511 134.603 181.511 138.727C181.508 139.142 181.483 139.557 181.435 139.969C179.171 139.398 176.852 139.078 174.519 139.014ZM175.694 119.36C176.75 120.503 177.32 122.012 177.284 123.569C177.264 124.468 177.023 125.348 176.582 126.131C176.554 126.131 176.527 126.126 176.499 126.126C176.243 126.126 175.99 126.142 175.738 126.166C174.751 124.543 173.388 123.182 171.766 122.198C170.143 121.213 168.308 120.634 166.414 120.509C166.704 119.839 167.13 119.238 167.666 118.745C168.204 118.257 168.835 117.885 169.522 117.65C170.208 117.415 170.935 117.323 171.659 117.38C173.21 117.491 174.657 118.2 175.694 119.36ZM162.774 116.834C162.644 116.583 162.508 116.338 162.361 116.102C162.922 115.905 163.466 115.662 163.986 115.375C163.538 115.823 163.132 116.311 162.774 116.834ZM154.952 116.692C157.18 116.692 159.063 119.183 159.063 122.132C159.063 122.161 159.056 122.19 159.056 122.219C158.429 122.596 157.839 123.03 157.294 123.518L156.723 123.092C155.036 121.849 153.047 121.08 150.963 120.865C151.408 118.505 153.052 116.692 154.952 116.692ZM147.823 125.98C148.833 125.732 149.885 125.703 150.907 125.896C151.929 126.089 152.898 126.499 153.749 127.099L154.447 127.619C154.01 128.743 153.784 129.938 153.78 131.145C153.78 131.271 153.79 131.397 153.795 131.524C150.582 132.32 147.813 134.356 146.092 137.188C145.216 136.882 144.429 136.364 143.801 135.681C143.172 134.997 142.722 134.169 142.49 133.269C142.325 132.511 142.324 131.725 142.486 130.966C142.648 130.207 142.969 129.491 143.429 128.865C144.488 127.394 146.053 126.366 147.823 125.98ZM146.352 153.31C146.709 153.312 147.062 153.384 147.391 153.523C146.801 154.906 146.39 156.359 146.171 157.846C145.765 160.445 145.981 163.104 146.801 165.603C146.653 165.635 146.503 165.655 146.352 165.66C144.124 165.66 142.241 162.832 142.241 159.485C142.241 156.138 144.124 153.31 146.352 153.31ZM143.299 169.992C142.348 171.288 141.681 172.772 141.343 174.345C140.768 172.635 140.476 170.843 140.479 169.039C140.479 168.706 140.51 168.382 140.529 168.055C141.319 168.873 142.26 169.531 143.299 169.992ZM146.056 176.828C146.056 173.423 148.559 170.653 151.635 170.653C155.178 170.653 155.453 175.716 155.453 177.269C155.453 183.003 152.679 183.003 151.635 183.003C148.559 183.003 146.056 180.233 146.056 176.828ZM158.561 232.368C157.544 233.684 156.873 235.235 156.608 236.878C156.343 238.521 156.493 240.204 157.045 241.774C154.996 238.35 153.424 234.662 152.374 230.811C154.33 231.687 156.424 232.214 158.561 232.368ZM164.369 248.267C164.259 248.631 164.173 249.002 164.11 249.377C163.062 248.656 162.077 247.848 161.165 246.961C162.147 247.584 163.232 248.026 164.369 248.267ZM168.951 250.937C168.947 250.336 169.079 249.742 169.338 249.199C169.596 248.657 169.973 248.18 170.441 247.804C170.91 247.429 171.457 247.164 172.042 247.03C172.627 246.896 173.235 246.897 173.819 247.031C172.775 248.697 172.221 250.623 172.22 252.59C172.22 252.675 172.23 252.759 172.232 252.845C171.162 252.61 170.108 252.305 169.078 251.932C168.994 251.607 168.952 251.273 168.951 250.937ZM202.558 214.769C200.829 212.401 198.319 210.722 195.474 210.028C192.628 209.334 189.628 209.67 187.006 210.976C186.168 209.561 185.889 208.233 186.284 207.219C187.393 204.371 194.031 203.295 201.252 206.114C204.381 207.256 207.201 209.111 209.491 211.533C206.935 211.981 204.544 213.097 202.558 214.769ZM217.293 213.655C218.005 214.828 219.007 215.799 220.203 216.472C221.398 217.145 222.747 217.499 224.118 217.499C225.49 217.499 226.839 217.145 228.034 216.472C229.23 215.799 230.232 214.828 230.944 213.655C231.446 213.965 231.87 214.388 232.182 214.889C232.494 215.391 232.686 215.958 232.742 216.546C232.742 218.858 229.2 221.435 224.119 221.435C219.037 221.435 215.494 218.858 215.494 216.546C215.551 215.958 215.742 215.391 216.054 214.889C216.366 214.388 216.791 213.965 217.293 213.655ZM274.763 247.032C275.43 246.881 276.125 246.904 276.781 247.1C277.436 247.296 278.031 247.657 278.507 248.149C278.983 248.641 279.325 249.247 279.499 249.91C279.674 250.572 279.676 251.268 279.504 251.932C278.474 252.306 277.42 252.611 276.35 252.845C276.352 252.76 276.362 252.676 276.362 252.59C276.36 250.624 275.807 248.697 274.763 247.032ZM284.213 248.267C285.35 248.026 286.435 247.584 287.417 246.961C286.505 247.848 285.52 248.656 284.472 249.376C284.409 249.001 284.323 248.631 284.213 248.267ZM290.021 232.368C292.158 232.214 294.252 231.687 296.208 230.811C295.158 234.661 293.587 238.35 291.538 241.774C292.09 240.204 292.24 238.52 291.975 236.877C291.71 235.234 291.038 233.684 290.021 232.368ZM296.947 183.003C295.903 183.003 293.129 183.003 293.129 177.269C293.129 175.717 293.404 170.653 296.947 170.653C300.023 170.653 302.526 173.423 302.526 176.828C302.526 180.233 300.023 183.003 296.947 183.003ZM310.699 155.436C310.299 154.028 309.603 152.72 308.659 151.602C307.715 150.484 306.543 149.58 305.222 148.951C305.279 148.339 305.31 147.722 305.31 147.103C305.309 145.287 305.05 143.48 304.541 141.736C306.003 141.159 307.318 140.262 308.391 139.111C309.463 137.961 310.266 136.585 310.741 135.085C312.065 142.532 311.471 148.81 310.698 155.436H310.699ZM307.614 124.163C306.212 122.856 304.527 121.892 302.692 121.344C302.617 119.644 302.135 117.987 301.286 116.513C300.436 115.039 299.245 113.792 297.812 112.877C298.789 111.747 299.544 110.442 300.038 109.032C300.267 109.399 300.496 109.776 300.724 110.166C303.389 114.641 305.693 119.321 307.614 124.163ZM288.782 100.304C291.066 100.223 293.339 101.255 295.59 103.376C295.701 103.889 295.758 104.413 295.76 104.938C295.76 108.666 293.027 111.7 289.667 111.7C286.308 111.7 283.575 108.666 283.575 104.938C283.575 103.843 283.82 102.763 284.294 101.777C285.641 100.912 287.185 100.406 288.782 100.304ZM278.745 106.814C279.129 109.401 280.35 111.79 282.221 113.615C279.928 112.397 277.267 112.07 274.748 112.695C275.903 110.62 277.241 108.651 278.745 106.814ZM262.119 135.963C262.21 135.892 262.29 135.821 262.379 135.75C262.186 136.73 262.088 137.728 262.085 138.727C262.088 139.648 262.17 140.567 262.33 141.474C261.776 141.686 261.221 141.906 260.67 142.144C260.504 142.216 260.342 142.29 260.179 142.363C259.566 141.16 258.76 140.065 257.793 139.123C259.209 138.173 260.635 137.122 262.119 135.963ZM241.416 144.995C245.524 144.72 249.538 143.635 253.226 141.803C254.297 142.518 255.165 143.499 255.747 144.649C253.011 146.232 250.532 148.223 248.394 150.553C246.492 148.929 244.164 147.886 241.687 147.549C241.428 146.7 241.105 145.872 240.72 145.072C240.95 145.048 241.193 145.013 241.416 144.995ZM224.845 147.487C227.964 147.317 231.064 146.879 234.109 146.178C234.559 146.089 235.013 146 235.467 145.912C236.782 147.92 237.484 150.268 237.49 152.669C237.476 154.58 237.027 156.463 236.179 158.175C235.33 159.887 234.104 161.384 232.593 162.551C231.611 161.308 230.358 160.306 228.93 159.623C227.502 158.939 225.937 158.591 224.354 158.606C222.772 158.62 221.213 158.997 219.798 159.707C218.383 160.418 217.149 161.442 216.19 162.703C214.622 161.541 213.345 160.029 212.46 158.288C211.575 156.547 211.107 154.623 211.091 152.669C211.097 150.262 211.803 147.909 213.124 145.898C213.517 145.972 213.906 146.044 214.306 146.119C217.962 146.809 221.717 147.518 224.845 147.487ZM207.862 145.071C207.477 145.871 207.153 146.699 206.894 147.549C204.405 147.887 202.067 148.938 200.161 150.576C198.023 148.252 195.551 146.26 192.826 144.668C193.407 143.51 194.279 142.523 195.356 141.803C199.044 143.635 203.058 144.72 207.166 144.995C207.386 145.013 207.631 145.046 207.862 145.071ZM190.788 139.123C189.821 140.067 189.014 141.164 188.401 142.369C188.237 142.296 188.078 142.216 187.912 142.144C187.36 141.906 186.806 141.686 186.252 141.474C186.412 140.567 186.494 139.648 186.496 138.727C186.493 137.728 186.395 136.731 186.202 135.75C186.291 135.821 186.372 135.893 186.463 135.964C187.946 137.122 189.373 138.173 190.788 139.123ZM173.808 112.686C173.212 112.539 172.605 112.443 171.994 112.398C170.043 112.261 168.093 112.68 166.37 113.606C168.23 111.789 169.446 109.413 169.833 106.839C171.313 108.678 172.642 110.633 173.808 112.686ZM159.562 100.3C159.642 100.3 159.722 100.301 159.802 100.304C161.392 100.401 162.932 100.9 164.277 101.757C164.757 102.748 165.007 103.836 165.006 104.938C165.006 108.666 162.274 111.7 158.914 111.7C155.555 111.7 152.822 108.666 152.822 104.938C152.823 104.416 152.879 103.896 152.989 103.386C155.167 101.336 157.364 100.3 159.562 100.3ZM147.858 110.167C148.086 109.777 148.315 109.399 148.544 109.032C149.038 110.443 149.793 111.747 150.77 112.878C149.337 113.793 148.146 115.039 147.297 116.513C146.447 117.986 145.965 119.643 145.89 121.342C144.06 121.885 142.379 122.842 140.977 124.139C142.897 119.306 145.197 114.634 147.858 110.167ZM137.842 135.084C138.316 136.585 139.119 137.961 140.191 139.112C141.264 140.262 142.579 141.159 144.041 141.737C143.532 143.48 143.273 145.287 143.272 147.104C143.272 147.723 143.304 148.34 143.361 148.951C142.04 149.58 140.868 150.484 139.923 151.602C138.979 152.721 138.283 154.028 137.884 155.437C137.11 148.811 136.516 142.532 137.842 135.084ZM142.31 183.759C142.89 184.133 143.506 184.448 144.149 184.698C145.762 186.431 147.918 187.557 150.259 187.889C149.83 190.524 150.146 193.226 151.171 195.691C150.168 197.502 149.558 199.505 149.381 201.568C149.322 202.324 149.32 203.082 149.375 203.838C148.88 204.243 148.406 204.675 147.955 205.129C146.843 199.692 145.418 194.712 144.02 189.841C143.433 187.794 142.856 185.777 142.31 183.759ZM177.278 253.458C177.061 252.097 177.358 250.705 178.111 249.551C178.864 248.398 180.018 247.567 181.349 247.219C182.681 246.872 184.093 247.033 185.312 247.672C186.531 248.311 187.469 249.382 187.943 250.675C184.707 252.557 181.02 253.519 177.278 253.458ZM192.058 247.681C191.67 246.951 191.198 246.268 190.651 245.648C190.971 243.074 191.96 240.63 193.518 238.558C195.076 236.486 197.149 234.859 199.531 233.841C199.847 234.432 200.197 235.004 200.58 235.555C200.196 236.19 199.854 236.849 199.554 237.528C197.744 241.372 195.197 244.822 192.058 247.681ZM203.902 231.45C201.79 227.558 201.978 222.943 204.598 219.759C206.101 217.965 208.204 216.78 210.514 216.423C210.514 216.465 210.509 216.505 210.509 216.547C210.509 220.356 213.335 223.598 217.581 225.252C212.008 226.15 207.298 228.296 203.902 231.45ZM249.056 237.595C249.03 237.53 249.002 237.467 248.971 237.404C248.664 236.795 248.321 236.205 247.944 235.637C248.349 235.061 248.719 234.461 249.051 233.84C251.433 234.859 253.507 236.486 255.065 238.557C256.623 240.629 257.611 243.074 257.931 245.648C257.387 246.266 256.916 246.946 256.529 247.674C253.406 244.833 250.868 241.409 249.056 237.595ZM260.642 250.667C261.092 249.445 261.957 248.421 263.085 247.773C264.214 247.126 265.533 246.897 266.813 247.126C268.093 247.356 269.252 248.029 270.086 249.028C270.92 250.027 271.377 251.288 271.376 252.59C271.374 252.88 271.35 253.17 271.304 253.457C267.563 253.516 263.876 252.551 260.642 250.667ZM300.626 205.129C300.175 204.674 299.7 204.242 299.204 203.836C299.424 201.003 298.8 198.169 297.412 195.691C298.436 193.226 298.752 190.524 298.323 187.889C300.664 187.556 302.82 186.43 304.432 184.698C305.076 184.447 305.692 184.133 306.273 183.759C305.726 185.778 305.148 187.795 304.561 189.842C303.163 194.713 301.738 199.692 300.626 205.129Z" fill="#FDF7F7"/>
</g>
<defs>
<linearGradient id="paint0_linear_171_579" x1="0" y1="187.45" x2="448.804" y2="187.45" gradientUnits="userSpaceOnUse">
<stop offset="0.0980126" stop-color="#B4E1EC"/>
<stop offset="0.491507" stop-color="#598D9A"/>
<stop offset="0.563051" stop-color="#EB8E44"/>
<stop offset="1" stop-color="#F25445"/>
</linearGradient>
<linearGradient id="paint1_linear_171_579" x1="227.433" y1="70.8465" x2="288.068" y2="70.8465" gradientUnits="userSpaceOnUse">
<stop offset="0.0980126" stop-color="#B4E1EC"/>
<stop offset="0.491507" stop-color="#598D9A"/>
<stop offset="0.563051" stop-color="#EB8E44"/>
<stop offset="1" stop-color="#F25445"/>
</linearGradient>
<linearGradient id="paint2_linear_171_579" x1="160.958" y1="70.9681" x2="220.761" y2="70.9681" gradientUnits="userSpaceOnUse">
<stop offset="0.0980126" stop-color="#B4E1EC"/>
<stop offset="0.491507" stop-color="#598D9A"/>
<stop offset="0.563051" stop-color="#EB8E44"/>
<stop offset="1" stop-color="#F25445"/>
</linearGradient>
</defs>
</svg>
