<svg width="181" height="151" viewBox="0 0 181 151" fill="none" xmlns="http://www.w3.org/2000/svg">
<g id="mid-hypo">
<g id="midhypobutterfly">
<path id="body" d="M173.639 1.95111H173.583C165.934 -2.28509 154.249 1.1886 145.499 4.69053L145.471 4.71849C145.386 4.74673 145.302 4.77497 145.217 4.80321C144.794 5.22683 102.477 18.7884 92.2503 66.374C91.7157 63.0011 91.0476 60.9734 90.32 60.9734C89.5924 60.9734 88.9243 63.0011 88.3894 66.3745C78.1627 18.7886 35.8463 5.2274 35.4224 4.80378C35.3377 4.77554 35.2533 4.7473 35.1684 4.71905L35.1402 4.6911C26.3905 1.18888 14.7054 -2.28453 7.08438 1.95168H7.00027C6.49194 2.31882 3.61301 3.73089 1.694 7.06337C-0.451088 10.7348 -0.422863 15.1687 1.0166 19.2072C6.43549 32.0852 18.3184 34.4293 26.5886 58.378C31.9189 73.671 33.4752 77.5155 52.4987 77.215C20.0401 95.1765 25.4308 142.311 48.9706 150.078C72.9222 156.96 76.7227 118.393 86.933 90.6861C87.02 90.426 87.0976 90.1976 87.1811 89.9505C87.3699 102.756 88.7019 112.686 90.3203 112.686C91.9387 112.686 93.2706 102.756 93.4594 89.9505C93.5427 90.1976 93.6206 90.4258 93.7073 90.6859C95.3725 95.2045 97.687 101.644 100.058 109.353C102.034 115.99 103.332 122.486 105.816 129.122C111.235 142.904 117.811 154.06 131.67 150.078C155.209 142.311 160.6 95.1762 128.142 77.2147C133.532 77.2994 139.093 77.5254 143.834 75.1249C145.302 74.3341 146.741 73.2892 147.927 71.9615C151.371 68.036 152.358 63.2349 154.08 58.3774C162.35 34.4287 174.204 32.0847 179.623 19.2066C181.063 15.1681 181.091 10.7342 178.946 7.06281C177.027 3.7306 174.148 2.31854 173.639 1.95111Z" fill="url(#paint0_linear_165_561)"/>
<path id="rightantenae" d="M92.0303 52.9774C92.1282 53.5414 92.1804 53.8424 92.1804 53.8424C92.1804 53.8424 92.1776 53.5366 92.1723 52.9633C92.1686 52.3911 92.1384 51.5557 92.2253 50.4952C92.369 44.9845 94.2428 37.8098 98.7043 30.9833C101.158 27.276 104.426 24.0065 108.414 21.3106C112.695 18.0346 116.779 14.3081 115.798 8.41726C115.2 5.33726 112.96 3.46316 110.385 3.22367C105.627 2.7639 101.668 6.82134 103.595 11.12C104.23 12.6464 105.307 13.6219 106.245 14.2381C108.279 15.3875 109.667 14.8744 109.623 14.9554C109.674 14.8947 108.214 15.1308 106.559 13.7874C105.764 13.1389 104.946 12.1112 104.595 10.7689C103.6 7.22802 106.699 4.61823 110.091 5.27428C111.835 5.57025 113.094 6.97808 113.386 8.84258C114.062 13.4064 110.32 16.4635 106.728 19.0501C102.735 21.8884 99.0998 25.6787 96.6456 29.6658C94.1553 33.6831 92.7943 37.9196 92.0929 41.5741C91.3633 45.2446 91.5062 48.3757 91.6792 50.5094C91.7667 51.5823 91.9329 52.412 92.0303 52.9774Z" fill="url(#paint1_linear_165_561)"/>
<path id="leftantenae" d="M72.2233 21.3091C76.1945 24.0329 79.4313 27.3205 81.8525 31.0337C86.1421 37.6978 88.0617 44.8186 88.174 50.4881C88.2533 51.5409 88.2183 52.3698 88.2112 52.9369C88.2022 53.5057 88.1977 53.8087 88.1977 53.8087C88.1977 53.8087 88.2519 53.5108 88.3532 52.9516C88.4534 52.3913 88.6253 51.5686 88.7201 50.5033C89.3987 42.8084 87.4548 35.5176 83.914 29.7194C81.4923 25.7263 77.8886 21.9177 73.914 19.0517C70.3458 16.4453 66.6376 13.393 67.348 8.86111C68.0305 4.79971 72.9066 4.37835 75.0345 6.79242C76.7683 8.66483 76.0935 11.849 73.9439 13.589C72.3568 14.8658 70.9904 14.6317 71.0359 14.6927C70.998 14.6116 72.2907 15.1228 74.2566 14.0406C77.4838 11.9598 78.1463 8.15055 76.2558 5.77573C73.1855 1.89876 66.1279 2.48618 64.9376 8.43127C63.932 14.2391 68.0257 18.0526 72.2233 21.3091Z" fill="url(#paint2_linear_165_561)"/>
</g>
</g>
<defs>
<linearGradient id="paint0_linear_165_561" x1="0" y1="75.4471" x2="180.64" y2="75.4471" gradientUnits="userSpaceOnUse">
<stop offset="0.485577" stop-color="#B4E1EC"/>
<stop offset="0.807692" stop-color="#EB8E44"/>
</linearGradient>
<linearGradient id="paint1_linear_165_561" x1="103.742" y1="3.18799" x2="103.742" y2="53.8424" gradientUnits="userSpaceOnUse">
<stop offset="0.60563" stop-color="#B4E1EC"/>
<stop offset="1" stop-color="#EB8E44"/>
</linearGradient>
<linearGradient id="paint2_linear_165_561" x1="76.8189" y1="3.31934" x2="76.8189" y2="53.8087" gradientUnits="userSpaceOnUse">
<stop offset="0.60563" stop-color="#B4E1EC"/>
<stop offset="1" stop-color="#EB8E44"/>
</linearGradient>
</defs>
</svg>
